<?xml version="1.0" standalone="no"?>
<!DOCTYPE svg PUBLIC "-//W3C//DTD SVG 1.1//EN" 
  "http://www.w3.org/Graphics/SVG/1.1/DTD/svg11.dtd">
<svg width="1024" height="1024" viewBox="0 0 1024 1024"
     xmlns="http://www.w3.org/2000/svg" version="1.1">
<desc>, (Blender 2.83.5)</desc>
<polygon stroke="black" stroke-width="1" fill="rgb(204, 204, 204)" fill-opacity="0.25" points="538.839,453.682 538.839,344.377 431.903,328.968 431.903,438.274 " />
<polygon stroke="black" stroke-width="1" fill="rgb(204, 204, 204)" fill-opacity="0.25" points="916.152,18.319 916.152,116.607 971.021,116.607 971.021,18.319 " />
<polygon stroke="black" stroke-width="1" fill="rgb(204, 204, 204)" fill-opacity="0.25" points="311.723,187.671 387.462,202.243 387.462,112.138 311.723,97.566 " />
<polygon stroke="black" stroke-width="1" fill="rgb(204, 204, 204)" fill-opacity="0.25" points="558.496,821.469 678.675,821.469 678.675,684.549 558.496,684.549 " />
<polygon stroke="black" stroke-width="1" fill="rgb(204, 204, 204)" fill-opacity="0.25" points="275.814,328.476 275.814,215.908 168.857,215.908 168.857,328.476 " />
<polygon stroke="black" stroke-width="1" fill="rgb(204, 204, 204)" fill-opacity="0.25" points="311.723,738.268 168.857,738.268 168.857,881.134 311.723,881.134 " />
<polygon stroke="black" stroke-width="1" fill="rgb(204, 204, 204)" fill-opacity="0.25" points="328.504,864.353 328.504,755.048 311.724,738.268 311.723,881.134 " />
<polygon stroke="black" stroke-width="1" fill="rgb(204, 204, 204)" fill-opacity="0.25" points="437.809,864.353 328.504,864.353 311.723,881.134 454.590,881.134 " />
<polygon stroke="black" stroke-width="1" fill="rgb(204, 204, 204)" fill-opacity="0.25" points="328.504,755.048 437.809,755.048 454.590,738.268 311.724,738.268 " />
<polygon stroke="black" stroke-width="1" fill="rgb(204, 204, 204)" fill-opacity="0.25" points="437.809,755.048 437.809,864.353 454.590,881.134 454.590,738.268 " />
<polygon stroke="black" stroke-width="1" fill="rgb(204, 204, 204)" fill-opacity="0.25" points="884.353,800.463 789.959,800.463 789.959,911.433 884.353,911.433 " />
<polygon stroke="black" stroke-width="1" fill="rgb(204, 204, 204)" fill-opacity="0.25" points="275.793,437.781 275.793,328.476 168.857,343.884 168.857,453.190 " />
<polygon stroke="black" stroke-width="1" fill="rgb(204, 204, 204)" fill-opacity="0.25" points="0.000,159.111 0.000,268.416 108.040,268.416 108.040,159.111 " />
<polygon stroke="black" stroke-width="1" fill="rgb(204, 204, 204)" fill-opacity="0.25" points="762.962,486.096 762.962,595.401 871.002,595.401 871.002,486.096 " />
<polygon stroke="black" stroke-width="1" fill="rgb(204, 204, 204)" fill-opacity="0.25" points="674.822,308.197 674.822,213.803 667.366,206.347 667.366,315.652 " />
<polygon stroke="black" stroke-width="1" fill="rgb(204, 204, 204)" fill-opacity="0.25" points="769.216,308.197 674.822,308.197 667.366,315.652 776.671,315.652 " />
<polygon stroke="black" stroke-width="1" fill="rgb(204, 204, 204)" fill-opacity="0.25" points="674.822,213.803 769.216,213.803 776.671,206.347 667.366,206.347 " />
<polygon stroke="black" stroke-width="1" fill="rgb(204, 204, 204)" fill-opacity="0.25" points="769.216,213.803 769.216,308.197 776.671,315.652 776.671,206.347 " />
<polygon stroke="black" stroke-width="1" fill="rgb(204, 204, 204)" fill-opacity="0.25" points="916.152,187.695 972.875,213.055 972.875,141.967 916.152,116.607 " />
<polygon stroke="black" stroke-width="1" fill="rgb(204, 204, 204)" fill-opacity="0.25" points="431.903,328.968 524.090,308.678 524.090,197.709 431.903,217.998 " />
<polygon stroke="black" stroke-width="1" fill="rgb(204, 204, 204)" fill-opacity="0.25" points="311.723,313.213 403.911,333.502 403.911,222.533 311.723,202.243 " />
<polygon stroke="black" stroke-width="1" fill="rgb(204, 204, 204)" fill-opacity="0.25" points="871.065,204.682 776.672,204.682 776.671,315.652 871.065,315.652 " />
<polygon stroke="black" stroke-width="1" fill="rgb(204, 204, 204)" fill-opacity="0.25" points="792.801,188.553 792.801,126.419 776.672,110.289 776.671,204.682 " />
<polygon stroke="black" stroke-width="1" fill="rgb(204, 204, 204)" fill-opacity="0.25" points="854.935,188.553 792.801,188.553 776.671,204.682 871.065,204.682 " />
<polygon stroke="black" stroke-width="1" fill="rgb(204, 204, 204)" fill-opacity="0.25" points="792.801,126.419 854.935,126.419 871.065,110.289 776.672,110.289 " />
<polygon stroke="black" stroke-width="1" fill="rgb(204, 204, 204)" fill-opacity="0.25" points="854.935,126.419 854.935,188.553 871.065,204.682 871.065,110.289 " />
<polygon stroke="black" stroke-width="1" fill="rgb(204, 204, 204)" fill-opacity="0.25" points="765.384,775.574 703.250,775.574 678.675,800.149 789.959,800.149 " />
<polygon stroke="black" stroke-width="1" fill="rgb(204, 204, 204)" fill-opacity="0.25" points="825.096,595.401 762.962,595.401 762.962,666.489 825.096,666.489 " />
<polygon stroke="black" stroke-width="1" fill="rgb(204, 204, 204)" fill-opacity="0.25" points="166.477,472.986 104.343,472.986 104.343,544.074 166.477,544.074 " />
<polygon stroke="black" stroke-width="1" fill="rgb(204, 204, 204)" fill-opacity="0.25" points="979.184,499.286 922.461,524.646 922.461,595.734 979.184,570.374 " />
<polygon stroke="black" stroke-width="1" fill="rgb(204, 204, 204)" fill-opacity="0.25" points="765.384,713.440 703.250,713.440 703.250,775.574 765.384,775.574 " />
<polygon stroke="black" stroke-width="1" fill="rgb(204, 204, 204)" fill-opacity="0.25" points="703.250,775.574 703.250,713.440 678.675,688.866 678.675,800.149 " />
<polygon stroke="black" stroke-width="1" fill="rgb(204, 204, 204)" fill-opacity="0.25" points="765.384,886.858 703.250,886.858 678.675,911.433 789.959,911.433 " />
<polygon stroke="black" stroke-width="1" fill="rgb(204, 204, 204)" fill-opacity="0.25" points="703.250,886.858 703.250,824.724 678.675,800.149 678.675,911.433 " />
<polygon stroke="black" stroke-width="1" fill="rgb(204, 204, 204)" fill-opacity="0.25" points="972.875,101.772 972.875,213.055 1013.014,213.055 1013.014,101.772 " />
<polygon stroke="black" stroke-width="1" fill="rgb(204, 204, 204)" fill-opacity="0.25" points="911.205,146.795 911.205,35.512 871.065,35.512 871.065,146.795 " />
<polygon stroke="black" stroke-width="1" fill="rgb(204, 204, 204)" fill-opacity="0.25" points="117.267,159.111 117.267,47.828 77.128,47.828 77.128,159.111 " />
<polygon stroke="black" stroke-width="1" fill="rgb(204, 204, 204)" fill-opacity="0.25" points="999.395,800.149 999.395,688.866 959.255,688.866 959.255,800.149 " />
<polygon stroke="black" stroke-width="1" fill="rgb(204, 204, 204)" fill-opacity="0.25" points="703.250,824.724 765.384,824.724 789.959,800.149 678.675,800.149 " />
<polygon stroke="black" stroke-width="1" fill="rgb(204, 204, 204)" fill-opacity="0.25" points="703.250,713.440 765.384,713.440 789.959,688.866 678.675,688.866 " />
<polygon stroke="black" stroke-width="1" fill="rgb(204, 204, 204)" fill-opacity="0.25" points="765.384,824.724 765.384,886.858 789.959,911.433 789.959,800.149 " />
<polygon stroke="black" stroke-width="1" fill="rgb(204, 204, 204)" fill-opacity="0.25" points="765.384,713.440 765.384,775.574 789.959,800.149 789.959,688.866 " />
<polygon stroke="black" stroke-width="1" fill="rgb(204, 204, 204)" fill-opacity="0.25" points="443.246,606.745 443.246,726.924 454.590,738.268 454.590,595.401 " />
<polygon stroke="black" stroke-width="1" fill="rgb(204, 204, 204)" fill-opacity="0.25" points="323.067,606.745 443.246,606.745 454.590,595.401 311.723,595.401 " />
<polygon stroke="black" stroke-width="1" fill="rgb(204, 204, 204)" fill-opacity="0.25" points="443.246,726.924 323.067,726.924 311.723,738.268 454.590,738.268 " />
<polygon stroke="black" stroke-width="1" fill="rgb(204, 204, 204)" fill-opacity="0.25" points="323.067,726.924 323.067,606.745 311.723,595.401 311.723,738.268 " />
<polygon stroke="black" stroke-width="1" fill="rgb(204, 204, 204)" fill-opacity="0.25" points="0.000,544.074 104.343,544.074 104.343,383.891 0.000,383.891 " />
<polygon stroke="black" stroke-width="1" fill="rgb(204, 204, 204)" fill-opacity="0.25" points="431.807,453.682 311.723,458.482 311.723,595.401 431.807,590.601 " />
<polygon stroke="black" stroke-width="1" fill="rgb(204, 204, 204)" fill-opacity="0.25" points="551.891,458.482 431.807,453.682 431.807,590.601 551.891,595.401 " />
<polygon stroke="black" stroke-width="1" fill="rgb(204, 204, 204)" fill-opacity="0.25" points="558.496,1024.000 678.675,1024.000 678.675,887.081 558.496,887.081 " />
<polygon stroke="black" stroke-width="1" fill="rgb(204, 204, 204)" fill-opacity="0.25" points="319.642,341.421 423.985,341.421 431.903,333.503 311.723,333.503 " />
<polygon stroke="black" stroke-width="1" fill="rgb(204, 204, 204)" fill-opacity="0.25" points="319.642,445.764 319.642,341.421 311.723,333.503 311.723,453.682 " />
<polygon stroke="black" stroke-width="1" fill="rgb(204, 204, 204)" fill-opacity="0.25" points="423.985,341.421 423.985,445.764 431.903,453.682 431.903,333.503 " />
<polygon stroke="black" stroke-width="1" fill="rgb(204, 204, 204)" fill-opacity="0.25" points="423.985,445.764 319.642,445.764 311.723,453.682 431.903,453.682 " />
<polygon stroke="black" stroke-width="1" fill="rgb(204, 204, 204)" fill-opacity="0.25" points="247.922,98.796 168.857,84.867 168.857,201.979 247.922,215.908 " />
<polygon stroke="black" stroke-width="1" fill="rgb(204, 204, 204)" fill-opacity="0.25" points="551.891,595.401 656.234,595.401 656.234,435.219 551.891,435.219 " />
<polygon stroke="black" stroke-width="1" fill="rgb(204, 204, 204)" fill-opacity="0.25" points="558.496,854.275 454.590,863.818 454.590,1024.000 558.496,1014.457 " />
<polygon stroke="black" stroke-width="1" fill="rgb(204, 204, 204)" fill-opacity="0.25" points="558.496,694.092 454.590,684.549 454.590,844.732 558.496,854.275 " />
<polygon stroke="black" stroke-width="1" fill="rgb(204, 204, 204)" fill-opacity="0.25" points="786.125,342.906 866.407,342.906 878.437,330.876 774.094,330.876 " />
<polygon stroke="black" stroke-width="1" fill="rgb(204, 204, 204)" fill-opacity="0.25" points="786.125,423.188 786.125,342.906 774.094,330.876 774.094,435.219 " />
<polygon stroke="black" stroke-width="1" fill="rgb(204, 204, 204)" fill-opacity="0.25" points="866.407,342.906 866.407,423.189 878.437,435.219 878.437,330.876 " />
<polygon stroke="black" stroke-width="1" fill="rgb(204, 204, 204)" fill-opacity="0.25" points="866.407,423.189 786.125,423.188 774.094,435.219 878.437,435.219 " />
<polygon stroke="black" stroke-width="1" fill="rgb(204, 204, 204)" fill-opacity="0.25" points="247.922,215.908 293.067,215.908 293.067,65.395 247.922,65.395 " />
<polygon stroke="black" stroke-width="1" fill="rgb(204, 204, 204)" fill-opacity="0.25" points="667.366,206.347 747.648,206.347 747.648,89.235 667.366,89.235 " />
<polygon stroke="black" stroke-width="1" fill="rgb(204, 204, 204)" fill-opacity="0.25" points="551.891,207.177 632.173,207.177 632.173,90.064 551.891,90.064 " />
<polygon stroke="black" stroke-width="1" fill="rgb(204, 204, 204)" fill-opacity="0.25" points="869.023,669.108 789.959,683.037 789.959,800.149 869.023,786.220 " />
<polygon stroke="black" stroke-width="1" fill="rgb(204, 204, 204)" fill-opacity="0.25" points="472.158,621.836 517.304,621.836 534.872,604.267 454.590,604.267 " />
<polygon stroke="black" stroke-width="1" fill="rgb(204, 204, 204)" fill-opacity="0.25" points="472.158,666.981 472.158,621.836 454.590,604.267 454.590,684.549 " />
<polygon stroke="black" stroke-width="1" fill="rgb(204, 204, 204)" fill-opacity="0.25" points="517.304,621.836 517.304,666.981 534.872,684.549 534.872,604.267 " />
<polygon stroke="black" stroke-width="1" fill="rgb(204, 204, 204)" fill-opacity="0.25" points="517.304,666.981 472.158,666.981 454.590,684.549 534.872,684.549 " />
<polygon stroke="black" stroke-width="1" fill="rgb(204, 204, 204)" fill-opacity="0.25" points="35.165,348.727 35.165,303.581 0.000,268.416 0.000,383.891 " />
<polygon stroke="black" stroke-width="1" fill="rgb(204, 204, 204)" fill-opacity="0.25" points="933.555,863.485 889.531,873.486 889.531,1024.000 933.555,1013.999 " />
<polygon stroke="black" stroke-width="1" fill="rgb(204, 204, 204)" fill-opacity="0.25" points="922.461,445.220 878.438,435.219 878.438,585.733 922.461,595.734 " />
<polygon stroke="black" stroke-width="1" fill="rgb(204, 204, 204)" fill-opacity="0.25" points="914.110,800.149 959.255,800.149 959.255,649.636 914.110,649.636 " />
<polygon stroke="black" stroke-width="1" fill="rgb(204, 204, 204)" fill-opacity="0.25" points="35.165,348.727 80.310,348.727 80.310,303.581 35.165,303.581 " />
<polygon stroke="black" stroke-width="1" fill="rgb(204, 204, 204)" fill-opacity="0.25" points="35.165,303.581 80.310,303.581 115.475,268.416 0.000,268.416 " />
<polygon stroke="black" stroke-width="1" fill="rgb(204, 204, 204)" fill-opacity="0.25" points="587.056,354.909 632.201,354.909 667.366,319.744 551.891,319.744 " />
<polygon stroke="black" stroke-width="1" fill="rgb(204, 204, 204)" fill-opacity="0.25" points="632.201,354.909 632.201,400.054 667.366,435.219 667.366,319.744 " />
<polygon stroke="black" stroke-width="1" fill="rgb(204, 204, 204)" fill-opacity="0.25" points="979.697,213.055 979.697,328.530 1013.495,328.530 1013.495,213.055 " />
<polygon stroke="black" stroke-width="1" fill="rgb(204, 204, 204)" fill-opacity="0.25" points="157.569,115.475 157.569,0.000 123.771,0.000 123.771,115.475 " />
<polygon stroke="black" stroke-width="1" fill="rgb(204, 204, 204)" fill-opacity="0.25" points="1012.982,595.734 1012.982,480.259 979.184,480.259 979.184,595.734 " />
<polygon stroke="black" stroke-width="1" fill="rgb(204, 204, 204)" fill-opacity="0.25" points="988.424,908.525 988.424,1024.000 1022.222,1024.000 1022.222,908.525 " />
<polygon stroke="black" stroke-width="1" fill="rgb(204, 204, 204)" fill-opacity="0.25" points="632.201,400.054 587.056,400.054 551.891,435.219 667.366,435.219 " />
<polygon stroke="black" stroke-width="1" fill="rgb(204, 204, 204)" fill-opacity="0.25" points="80.310,303.581 80.310,348.727 115.475,383.891 115.475,268.416 " />
<polygon stroke="black" stroke-width="1" fill="rgb(204, 204, 204)" fill-opacity="0.25" points="587.056,400.054 587.056,354.909 551.891,319.744 551.891,435.219 " />
<polygon stroke="black" stroke-width="1" fill="rgb(204, 204, 204)" fill-opacity="0.25" points="80.310,348.727 35.165,348.727 0.000,383.891 115.475,383.891 " />
<polygon stroke="black" stroke-width="1" fill="rgb(204, 204, 204)" fill-opacity="0.25" points="289.434,617.690 289.434,715.978 311.723,738.268 311.723,595.401 " />
<polygon stroke="black" stroke-width="1" fill="rgb(204, 204, 204)" fill-opacity="0.25" points="191.146,715.978 191.146,617.690 168.857,595.401 168.857,738.268 " />
<polygon stroke="black" stroke-width="1" fill="rgb(204, 204, 204)" fill-opacity="0.25" points="289.434,715.978 191.146,715.978 168.857,738.268 311.723,738.268 " />
<polygon stroke="black" stroke-width="1" fill="rgb(204, 204, 204)" fill-opacity="0.25" points="191.146,617.690 289.434,617.690 311.723,595.401 168.857,595.401 " />
<polygon stroke="black" stroke-width="1" fill="rgb(204, 204, 204)" fill-opacity="0.25" points="791.243,925.712 791.243,1024.000 889.531,1024.000 889.531,925.712 " />
<polygon stroke="black" stroke-width="1" fill="rgb(204, 204, 204)" fill-opacity="0.25" points="988.424,925.712 988.424,827.424 933.555,827.424 933.555,925.712 " />
<polygon stroke="black" stroke-width="1" fill="rgb(204, 204, 204)" fill-opacity="0.25" points="941.983,336.931 941.982,435.219 996.852,435.219 996.852,336.931 " />
<polygon stroke="black" stroke-width="1" fill="rgb(204, 204, 204)" fill-opacity="0.25" points="988.424,1024.000 988.424,925.712 933.555,925.712 933.555,1024.000 " />
<polygon stroke="black" stroke-width="1" fill="rgb(204, 204, 204)" fill-opacity="0.25" points="184.007,896.283 296.574,896.283 311.723,881.134 168.857,881.134 " />
<polygon stroke="black" stroke-width="1" fill="rgb(204, 204, 204)" fill-opacity="0.25" points="296.574,1008.851 184.007,1008.851 168.857,1024.000 311.723,1024.000 " />
<polygon stroke="black" stroke-width="1" fill="rgb(204, 204, 204)" fill-opacity="0.25" points="184.007,1008.851 184.007,896.283 168.857,881.134 168.857,1024.000 " />
<polygon stroke="black" stroke-width="1" fill="rgb(204, 204, 204)" fill-opacity="0.25" points="296.574,896.283 296.574,1008.851 311.723,1024.000 311.723,881.134 " />
<polygon stroke="black" stroke-width="1" fill="rgb(204, 204, 204)" fill-opacity="0.25" points="941.982,435.219 941.982,347.091 878.438,332.622 878.438,420.750 " />
<polygon stroke="black" stroke-width="1" fill="rgb(204, 204, 204)" fill-opacity="0.25" points="667.366,322.652 667.366,435.219 774.094,428.220 774.094,315.652 " />
<polygon stroke="black" stroke-width="1" fill="rgb(204, 204, 204)" fill-opacity="0.25" points="551.891,207.177 551.891,319.744 658.848,319.744 658.848,207.177 " />
<polygon stroke="black" stroke-width="1" fill="rgb(204, 204, 204)" fill-opacity="0.25" points="762.962,595.401 762.962,482.834 656.234,475.835 656.234,588.402 " />
<polygon stroke="black" stroke-width="1" fill="rgb(204, 204, 204)" fill-opacity="0.25" points="690.895,923.652 779.023,923.652 791.243,911.433 678.675,911.433 " />
<polygon stroke="black" stroke-width="1" fill="rgb(204, 204, 204)" fill-opacity="0.25" points="779.023,1011.780 690.895,1011.780 678.675,1024.000 791.243,1024.000 " />
<polygon stroke="black" stroke-width="1" fill="rgb(204, 204, 204)" fill-opacity="0.25" points="690.895,1011.780 690.895,923.652 678.675,911.433 678.675,1024.000 " />
<polygon stroke="black" stroke-width="1" fill="rgb(204, 204, 204)" fill-opacity="0.25" points="779.023,923.652 779.023,1011.780 791.243,1024.000 791.243,911.433 " />
<polygon stroke="black" stroke-width="1" fill="rgb(204, 204, 204)" fill-opacity="0.25" points="128.493,814.778 40.364,814.778 0.000,855.143 168.857,855.143 " />
<polygon stroke="black" stroke-width="1" fill="rgb(204, 204, 204)" fill-opacity="0.25" points="665.215,684.549 665.215,596.421 600.043,596.421 600.043,684.549 " />
<polygon stroke="black" stroke-width="1" fill="rgb(204, 204, 204)" fill-opacity="0.25" points="916.152,227.524 916.152,315.652 979.697,301.183 979.697,213.055 " />
<polygon stroke="black" stroke-width="1" fill="rgb(204, 204, 204)" fill-opacity="0.25" points="534.872,596.421 534.872,684.549 600.043,684.549 600.043,596.421 " />
<polygon stroke="black" stroke-width="1" fill="rgb(204, 204, 204)" fill-opacity="0.25" points="128.493,814.778 128.493,726.650 40.364,726.650 40.364,814.778 " />
<polygon stroke="black" stroke-width="1" fill="rgb(204, 204, 204)" fill-opacity="0.25" points="40.364,983.636 40.364,895.507 0.000,855.143 0.000,1024.000 " />
<polygon stroke="black" stroke-width="1" fill="rgb(204, 204, 204)" fill-opacity="0.25" points="128.493,726.650 128.493,814.778 168.857,855.143 168.857,686.286 " />
<polygon stroke="black" stroke-width="1" fill="rgb(204, 204, 204)" fill-opacity="0.25" points="40.364,726.650 128.493,726.650 168.857,686.286 0.000,686.286 " />
<polygon stroke="black" stroke-width="1" fill="rgb(204, 204, 204)" fill-opacity="0.25" points="869.023,631.292 869.023,800.149 914.110,800.149 914.110,631.292 " />
<polygon stroke="black" stroke-width="1" fill="rgb(204, 204, 204)" fill-opacity="0.25" points="168.857,453.190 168.857,284.332 123.771,284.332 123.771,453.190 " />
<polygon stroke="black" stroke-width="1" fill="rgb(204, 204, 204)" fill-opacity="0.25" points="916.152,315.652 916.152,146.795 871.065,146.795 871.065,315.652 " />
<polygon stroke="black" stroke-width="1" fill="rgb(204, 204, 204)" fill-opacity="0.25" points="168.857,284.332 168.857,115.475 123.771,115.475 123.771,284.332 " />
<polygon stroke="black" stroke-width="1" fill="rgb(204, 204, 204)" fill-opacity="0.25" points="128.493,983.636 40.364,983.636 0.000,1024.000 168.857,1024.000 " />
<polygon stroke="black" stroke-width="1" fill="rgb(204, 204, 204)" fill-opacity="0.25" points="40.364,814.778 40.364,726.650 0.000,686.286 0.000,855.143 " />
<polygon stroke="black" stroke-width="1" fill="rgb(204, 204, 204)" fill-opacity="0.25" points="128.493,895.507 128.493,983.636 168.857,1024.000 168.857,855.143 " />
<polygon stroke="black" stroke-width="1" fill="rgb(204, 204, 204)" fill-opacity="0.25" points="40.364,895.507 128.493,895.507 168.857,855.143 0.000,855.143 " />
<polygon stroke="black" stroke-width="1" fill="rgb(204, 204, 204)" fill-opacity="0.25" points="421.721,914.003 421.721,991.131 454.590,1024.000 454.590,881.134 " />
<polygon stroke="black" stroke-width="1" fill="rgb(204, 204, 204)" fill-opacity="0.25" points="344.593,914.003 421.721,914.003 454.590,881.134 311.724,881.134 " />
<polygon stroke="black" stroke-width="1" fill="rgb(204, 204, 204)" fill-opacity="0.25" points="421.721,991.131 344.593,991.131 311.723,1024.000 454.590,1024.000 " />
<polygon stroke="black" stroke-width="1" fill="rgb(204, 204, 204)" fill-opacity="0.25" points="344.593,991.131 344.593,914.003 311.724,881.134 311.723,1024.000 " />
<polygon stroke="black" stroke-width="1" fill="rgb(204, 204, 204)" fill-opacity="0.25" points="109.670,653.744 32.542,653.744 0.000,686.285 142.212,686.285 " />
<polygon stroke="black" stroke-width="1" fill="rgb(204, 204, 204)" fill-opacity="0.25" points="507.642,93.032 431.903,107.604 431.903,197.709 507.642,183.137 " />
<polygon stroke="black" stroke-width="1" fill="rgb(204, 204, 204)" fill-opacity="0.25" points="755.803,598.761 678.675,598.761 678.675,688.866 755.803,688.866 " />
<polygon stroke="black" stroke-width="1" fill="rgb(204, 204, 204)" fill-opacity="0.25" points="0.000,159.111 77.128,159.111 77.128,69.006 0.000,69.006 " />
<polygon stroke="black" stroke-width="1" fill="rgb(204, 204, 204)" fill-opacity="0.25" points="109.670,653.744 109.670,576.616 32.542,576.616 32.542,653.744 " />
<polygon stroke="black" stroke-width="1" fill="rgb(204, 204, 204)" fill-opacity="0.25" points="32.542,653.744 32.542,576.616 0.000,544.074 0.000,686.285 " />
<polygon stroke="black" stroke-width="1" fill="rgb(204, 204, 204)" fill-opacity="0.25" points="278.527,562.859 201.399,562.859 168.857,595.401 311.069,595.401 " />
<polygon stroke="black" stroke-width="1" fill="rgb(204, 204, 204)" fill-opacity="0.25" points="201.399,562.859 201.399,485.732 168.857,453.190 168.857,595.401 " />
<polygon stroke="black" stroke-width="1" fill="rgb(204, 204, 204)" fill-opacity="0.25" points="420.906,202.243 420.906,60.031 387.462,60.031 387.462,202.243 " />
<polygon stroke="black" stroke-width="1" fill="rgb(204, 204, 204)" fill-opacity="0.25" points="632.173,64.965 632.173,207.177 665.617,207.177 665.617,64.965 " />
<polygon stroke="black" stroke-width="1" fill="rgb(204, 204, 204)" fill-opacity="0.25" points="311.069,453.190 311.069,310.978 277.625,310.978 277.625,453.190 " />
<polygon stroke="black" stroke-width="1" fill="rgb(204, 204, 204)" fill-opacity="0.25" points="541.086,197.709 541.086,55.497 507.642,55.497 507.642,197.709 " />
<polygon stroke="black" stroke-width="1" fill="rgb(204, 204, 204)" fill-opacity="0.25" points="201.399,485.732 278.527,485.732 311.069,453.190 168.857,453.190 " />
<polygon stroke="black" stroke-width="1" fill="rgb(204, 204, 204)" fill-opacity="0.25" points="32.542,576.616 109.670,576.616 142.212,544.074 0.000,544.074 " />
<polygon stroke="black" stroke-width="1" fill="rgb(204, 204, 204)" fill-opacity="0.25" points="278.527,485.732 278.527,562.859 311.069,595.401 311.069,453.190 " />
<polygon stroke="black" stroke-width="1" fill="rgb(204, 204, 204)" fill-opacity="0.25" points="109.670,576.616 109.670,653.744 142.212,686.285 142.212,544.074 " />

</svg>
