<?xml version="1.0" standalone="no"?>
<!DOCTYPE svg PUBLIC "-//W3C//DTD SVG 1.1//EN" 
  "http://www.w3.org/Graphics/SVG/1.1/DTD/svg11.dtd">
<svg width="512" height="512" viewBox="0 0 512 512"
     xmlns="http://www.w3.org/2000/svg" version="1.1">
<desc>Bullet.blend, (Blender 2.83.5)</desc>
<polygon stroke="black" stroke-width="1" fill="rgb(204, 204, 204)" fill-opacity="1" points="194.752,302.698 194.752,459.520 250.196,459.520 250.196,302.698 " />
<polygon stroke="black" stroke-width="1" fill="rgb(204, 204, 204)" fill-opacity="1" points="9.472,302.698 9.472,459.520 64.917,459.520 64.917,302.698 " />
<polygon stroke="black" stroke-width="1" fill="rgb(204, 204, 204)" fill-opacity="1" points="64.917,302.698 64.917,459.520 120.362,459.520 120.362,302.698 " />
<polygon stroke="black" stroke-width="1" fill="rgb(204, 204, 204)" fill-opacity="1" points="9.472,172.864 166.294,172.864 166.294,228.308 9.472,228.308 " />
<polygon stroke="black" stroke-width="1" fill="rgb(204, 204, 204)" fill-opacity="1" points="9.472,228.308 166.294,228.308 166.294,283.753 9.472,283.753 " />
<polygon stroke="black" stroke-width="1" fill="rgb(204, 204, 204)" fill-opacity="1" points="269.141,502.528 269.141,345.706 324.586,345.706 324.586,502.528 " />
<polygon stroke="black" stroke-width="1" fill="rgb(204, 204, 204)" fill-opacity="1" points="324.586,345.706 269.141,345.706 269.309,345.394 308.396,302.698 324.586,345.394 " />
<polygon stroke="black" stroke-width="1" fill="rgb(204, 204, 204)" fill-opacity="1" points="324.586,502.528 324.586,345.706 380.031,345.706 380.031,502.528 " />
<polygon stroke="black" stroke-width="1" fill="rgb(204, 204, 204)" fill-opacity="1" points="139.307,302.698 139.307,459.520 194.752,459.520 194.752,302.698 " />
<polygon stroke="black" stroke-width="1" fill="rgb(204, 204, 204)" fill-opacity="1" points="373.131,241.318 330.695,283.753 270.682,283.753 228.247,241.318 228.247,181.305 270.682,138.869 330.695,138.869 373.131,181.305 " />
<polygon stroke="black" stroke-width="1" fill="rgb(204, 204, 204)" fill-opacity="1" points="64.917,459.520 9.472,459.520 9.640,459.832 48.727,502.528 64.917,459.832 " />
<polygon stroke="black" stroke-width="1" fill="rgb(204, 204, 204)" fill-opacity="1" points="166.294,283.753 166.294,228.308 166.606,228.308 209.302,244.499 166.606,283.586 " />
<polygon stroke="black" stroke-width="1" fill="rgb(204, 204, 204)" fill-opacity="1" points="194.752,459.520 139.307,459.520 139.474,459.832 178.561,502.528 194.752,459.832 " />
<polygon stroke="black" stroke-width="1" fill="rgb(204, 204, 204)" fill-opacity="1" points="120.362,459.520 64.917,459.520 64.917,459.832 81.108,502.528 120.194,459.832 " />
<polygon stroke="black" stroke-width="1" fill="rgb(204, 204, 204)" fill-opacity="1" points="166.294,228.308 166.294,172.864 166.606,173.031 209.302,212.118 166.606,228.308 " />
<polygon stroke="black" stroke-width="1" fill="rgb(204, 204, 204)" fill-opacity="1" points="380.031,345.706 324.586,345.706 324.586,345.394 340.776,302.698 379.863,345.394 " />
<polygon stroke="black" stroke-width="1" fill="rgb(204, 204, 204)" fill-opacity="1" points="9.472,51.780 39.388,81.696 81.696,81.696 51.780,51.780 " />
<polygon stroke="black" stroke-width="1" fill="rgb(204, 204, 204)" fill-opacity="1" points="9.472,111.611 51.780,111.611 81.696,81.696 39.388,81.696 " />
<polygon stroke="black" stroke-width="1" fill="rgb(204, 204, 204)" fill-opacity="1" points="51.780,153.919 81.696,124.003 81.696,81.696 51.780,111.611 " />
<polygon stroke="black" stroke-width="1" fill="rgb(204, 204, 204)" fill-opacity="1" points="111.611,153.919 111.611,111.611 81.696,81.696 81.696,124.003 " />
<polygon stroke="black" stroke-width="1" fill="rgb(204, 204, 204)" fill-opacity="1" points="153.919,111.611 124.003,81.696 81.696,81.696 111.611,111.611 " />
<polygon stroke="black" stroke-width="1" fill="rgb(204, 204, 204)" fill-opacity="1" points="153.919,51.780 111.612,51.780 81.696,81.696 124.003,81.696 " />
<polygon stroke="black" stroke-width="1" fill="rgb(204, 204, 204)" fill-opacity="1" points="111.612,9.472 81.696,39.388 81.696,81.696 111.612,51.780 " />
<polygon stroke="black" stroke-width="1" fill="rgb(204, 204, 204)" fill-opacity="1" points="51.780,9.472 51.780,51.780 81.696,81.696 81.696,39.388 " />
<polygon stroke="black" stroke-width="1" fill="rgb(204, 204, 204)" fill-opacity="1" points="250.196,459.520 194.752,459.520 194.752,459.832 210.942,502.528 250.029,459.832 " />

</svg>
