<?xml version="1.0" standalone="no"?>
<!DOCTYPE svg PUBLIC "-//W3C//DTD SVG 1.1//EN" 
  "http://www.w3.org/Graphics/SVG/1.1/DTD/svg11.dtd">
<svg width="2048" height="2048" viewBox="0 0 2048 2048"
     xmlns="http://www.w3.org/2000/svg" version="1.1">
<desc>Fighter.blend, (Blender 2.83.5)</desc>
<polygon stroke="black" stroke-width="1" fill="rgb(204, 204, 204)" fill-opacity="0.25" points="404.558,596.793 404.558,363.806 268.615,471.085 " />
<polygon stroke="black" stroke-width="1" fill="rgb(204, 204, 204)" fill-opacity="0.25" points="1612.559,927.604 1932.203,811.873 1894.744,735.791 1624.870,758.893 " />
<polygon stroke="black" stroke-width="1" fill="rgb(204, 204, 204)" fill-opacity="0.25" points="1612.559,927.604 1657.262,1302.691 1895.158,1282.325 1932.203,811.873 " />
<polygon stroke="black" stroke-width="1" fill="rgb(204, 204, 204)" fill-opacity="0.25" points="88.013,640.345 136.925,325.705 101.522,316.781 " />
<polygon stroke="black" stroke-width="1" fill="rgb(204, 204, 204)" fill-opacity="0.25" points="1209.049,1360.456 1080.585,1378.439 1136.799,1497.955 " />
<polygon stroke="black" stroke-width="1" fill="rgb(204, 204, 204)" fill-opacity="0.25" points="1195.901,1182.285 1195.901,707.711 1135.935,1007.668 1151.129,1197.360 " />
<polygon stroke="black" stroke-width="1" fill="rgb(204, 204, 204)" fill-opacity="0.25" points="1895.158,1282.325 1657.262,1302.691 1682.336,1436.774 1883.647,1308.229 " />
<polygon stroke="black" stroke-width="1" fill="rgb(204, 204, 204)" fill-opacity="0.25" points="1313.658,1315.302 1423.771,1876.935 1542.582,1876.816 1542.582,1498.940 " />
<polygon stroke="black" stroke-width="1" fill="rgb(204, 204, 204)" fill-opacity="0.25" points="354.244,748.072 550.782,743.527 590.551,713.200 289.770,710.322 " />
<polygon stroke="black" stroke-width="1" fill="rgb(204, 204, 204)" fill-opacity="0.25" points="536.219,1245.677 414.746,1248.486 343.336,1289.378 581.531,1283.870 " />
<polygon stroke="black" stroke-width="1" fill="rgb(204, 204, 204)" fill-opacity="0.25" points="1209.049,1360.456 1379.670,1846.093 1423.771,1876.935 1313.658,1315.302 " />
<polygon stroke="black" stroke-width="1" fill="rgb(204, 204, 204)" fill-opacity="0.25" points="414.746,1248.486 354.244,748.072 289.770,710.322 343.336,1289.378 " />
<polygon stroke="black" stroke-width="1" fill="rgb(204, 204, 204)" fill-opacity="0.25" points="396.510,875.270 482.489,1195.976 515.208,998.771 470.591,915.334 " />
<polygon stroke="black" stroke-width="1" fill="rgb(204, 204, 204)" fill-opacity="0.25" points="1325.101,425.171 1477.186,549.795 1477.186,397.009 " />
<polygon stroke="black" stroke-width="1" fill="rgb(204, 204, 204)" fill-opacity="0.25" points="396.510,875.270 461.173,747.643 354.244,748.072 " />
<polygon stroke="black" stroke-width="1" fill="rgb(204, 204, 204)" fill-opacity="0.25" points="414.746,1248.486 536.219,1245.677 482.489,1195.976 " />
<polygon stroke="black" stroke-width="1" fill="rgb(204, 204, 204)" fill-opacity="0.25" points="1254.865,1809.866 1379.670,1846.093 1136.799,1497.955 " />
<polygon stroke="black" stroke-width="1" fill="rgb(204, 204, 204)" fill-opacity="0.25" points="1379.670,1846.093 1209.049,1360.456 1136.799,1497.955 " />
<polygon stroke="black" stroke-width="1" fill="rgb(204, 204, 204)" fill-opacity="0.25" points="354.244,748.072 414.746,1248.486 396.510,875.270 " />
<polygon stroke="black" stroke-width="1" fill="rgb(204, 204, 204)" fill-opacity="0.25" points="414.746,1248.486 482.489,1195.976 396.510,875.270 " />
<polygon stroke="black" stroke-width="1" fill="rgb(204, 204, 204)" fill-opacity="0.25" points="1335.852,720.113 1392.509,812.407 1450.440,781.452 1322.089,632.845 " />
<polygon stroke="black" stroke-width="1" fill="rgb(204, 204, 204)" fill-opacity="0.25" points="1254.865,1809.866 1136.799,1497.955 639.552,1597.238 634.527,1683.155 " />
<polygon stroke="black" stroke-width="1" fill="rgb(204, 204, 204)" fill-opacity="0.25" points="1136.799,1497.955 1080.585,1378.439 636.311,1494.744 639.552,1597.238 " />
<polygon stroke="black" stroke-width="1" fill="rgb(204, 204, 204)" fill-opacity="0.25" points="1792.274,607.536 1862.403,665.814 1862.403,173.743 1823.440,167.389 " />
<polygon stroke="black" stroke-width="1" fill="rgb(204, 204, 204)" fill-opacity="0.25" points="549.461,1411.380 377.164,1326.733 353.044,1518.422 590.551,1638.804 " />
<polygon stroke="black" stroke-width="1" fill="rgb(204, 204, 204)" fill-opacity="0.25" points="581.531,1283.870 343.336,1289.378 357.732,1313.732 572.115,1419.055 " />
<polygon stroke="black" stroke-width="1" fill="rgb(204, 204, 204)" fill-opacity="0.25" points="343.336,1289.378 335.132,1302.940 349.527,1327.294 357.732,1313.732 " />
<polygon stroke="black" stroke-width="1" fill="rgb(204, 204, 204)" fill-opacity="0.25" points="1542.582,1876.816 1423.771,1876.935 1422.848,2013.012 1541.659,2012.893 " />
<polygon stroke="black" stroke-width="1" fill="rgb(204, 204, 204)" fill-opacity="0.25" points="549.461,1411.380 553.582,1433.788 574.625,1444.126 572.115,1419.055 " />
<polygon stroke="black" stroke-width="1" fill="rgb(204, 204, 204)" fill-opacity="0.25" points="377.164,1326.733 549.461,1411.380 572.115,1419.055 357.732,1313.732 " />
<polygon stroke="black" stroke-width="1" fill="rgb(204, 204, 204)" fill-opacity="0.25" points="370.571,1337.632 377.164,1326.733 357.732,1313.732 349.527,1327.294 " />
<polygon stroke="black" stroke-width="1" fill="rgb(204, 204, 204)" fill-opacity="0.25" points="1702.096,1424.157 1863.887,1320.847 1883.647,1308.229 1682.336,1436.774 " />
<polygon stroke="black" stroke-width="1" fill="rgb(204, 204, 204)" fill-opacity="0.25" points="1863.887,1320.847 1702.096,1424.157 1691.085,1660.475 1913.677,1514.365 " />
<polygon stroke="black" stroke-width="1" fill="rgb(204, 204, 204)" fill-opacity="0.25" points="543.675,359.475 543.675,455.351 590.551,464.830 590.551,325.987 " />
<polygon stroke="black" stroke-width="1" fill="rgb(204, 204, 204)" fill-opacity="0.25" points="532.579,2006.702 465.599,2005.583 465.552,2035.306 532.532,2036.426 " />
<polygon stroke="black" stroke-width="1" fill="rgb(204, 204, 204)" fill-opacity="0.25" points="1899.681,1605.789 1699.785,1729.613 1772.111,1903.483 1845.432,1892.795 " />
<polygon stroke="black" stroke-width="1" fill="rgb(204, 204, 204)" fill-opacity="0.25" points="894.314,411.485 894.314,549.795 964.017,522.664 964.017,411.602 " />
<polygon stroke="black" stroke-width="1" fill="rgb(204, 204, 204)" fill-opacity="0.25" points="590.551,1638.804 353.044,1518.422 375.569,1610.354 588.007,1711.165 " />
<polygon stroke="black" stroke-width="1" fill="rgb(204, 204, 204)" fill-opacity="0.25" points="353.044,1518.422 291.495,1549.456 315.900,1638.281 375.569,1610.354 " />
<polygon stroke="black" stroke-width="1" fill="rgb(204, 204, 204)" fill-opacity="0.25" points="1913.677,1514.365 1691.085,1660.475 1699.785,1729.613 1899.681,1605.789 " />
<polygon stroke="black" stroke-width="1" fill="rgb(204, 204, 204)" fill-opacity="0.25" points="660.527,415.229 660.527,510.716 894.314,549.795 894.314,411.485 " />
<polygon stroke="black" stroke-width="1" fill="rgb(204, 204, 204)" fill-opacity="0.25" points="1845.432,1892.795 1851.316,2004.618 1867.286,1997.444 1894.908,1913.368 " />
<polygon stroke="black" stroke-width="1" fill="rgb(204, 204, 204)" fill-opacity="0.25" points="964.017,411.602 964.017,522.664 1144.829,493.605 1144.829,417.022 " />
<polygon stroke="black" stroke-width="1" fill="rgb(204, 204, 204)" fill-opacity="0.25" points="588.007,1711.165 375.569,1610.354 460.024,1892.028 533.946,1894.689 " />
<polygon stroke="black" stroke-width="1" fill="rgb(204, 204, 204)" fill-opacity="0.25" points="901.551,224.928 901.551,336.442 932.518,341.509 932.518,305.501 " />
<polygon stroke="black" stroke-width="1" fill="rgb(204, 204, 204)" fill-opacity="0.25" points="1255.124,472.362 1255.124,417.088 1144.829,417.022 1144.829,493.605 " />
<polygon stroke="black" stroke-width="1" fill="rgb(204, 204, 204)" fill-opacity="0.25" points="465.599,2005.583 532.579,2006.702 533.946,1894.689 460.024,1892.028 " />
<polygon stroke="black" stroke-width="1" fill="rgb(204, 204, 204)" fill-opacity="0.25" points="1784.729,2013.012 1851.316,2004.618 1845.432,1892.795 1772.111,1903.483 " />
<polygon stroke="black" stroke-width="1" fill="rgb(204, 204, 204)" fill-opacity="0.25" points="1894.908,1913.368 1911.322,1845.097 1845.432,1892.795 " />
<polygon stroke="black" stroke-width="1" fill="rgb(204, 204, 204)" fill-opacity="0.25" points="1899.681,1605.789 1845.432,1892.795 1911.322,1845.097 1932.203,1709.118 " />
<polygon stroke="black" stroke-width="1" fill="rgb(204, 204, 204)" fill-opacity="0.25" points="460.024,1892.028 375.569,1610.354 350.035,1724.539 387.802,1854.323 " />
<polygon stroke="black" stroke-width="1" fill="rgb(204, 204, 204)" fill-opacity="0.25" points="453.051,2031.933 465.599,2005.583 446.924,2003.547 436.392,2026.565 " />
<polygon stroke="black" stroke-width="1" fill="rgb(204, 204, 204)" fill-opacity="0.25" points="465.599,2005.583 460.024,1892.028 411.937,1920.011 " />
<polygon stroke="black" stroke-width="1" fill="rgb(204, 204, 204)" fill-opacity="0.25" points="331.536,1860.740 387.802,1854.323 350.035,1724.539 315.174,1728.632 " />
<polygon stroke="black" stroke-width="1" fill="rgb(204, 204, 204)" fill-opacity="0.25" points="411.937,1920.011 355.671,1926.427 407.739,2006.524 446.924,2003.547 " />
<polygon stroke="black" stroke-width="1" fill="rgb(204, 204, 204)" fill-opacity="0.25" points="331.536,1860.740 355.671,1926.427 411.937,1920.011 387.802,1854.323 " />
<polygon stroke="black" stroke-width="1" fill="rgb(204, 204, 204)" fill-opacity="0.25" points="411.937,1920.011 460.024,1892.028 387.802,1854.323 " />
<polygon stroke="black" stroke-width="1" fill="rgb(204, 204, 204)" fill-opacity="0.25" points="446.924,2003.547 465.599,2005.583 411.937,1920.011 " />
<polygon stroke="black" stroke-width="1" fill="rgb(204, 204, 204)" fill-opacity="0.25" points="503.389,540.366 503.389,640.345 590.551,634.786 590.551,534.807 " />
<polygon stroke="black" stroke-width="1" fill="rgb(204, 204, 204)" fill-opacity="0.25" points="1372.971,905.409 1324.865,829.646 1265.878,828.484 1450.440,1245.325 " />
<polygon stroke="black" stroke-width="1" fill="rgb(204, 204, 204)" fill-opacity="0.25" points="1324.865,829.646 1335.852,720.113 1322.089,632.845 1265.878,828.484 " />
<polygon stroke="black" stroke-width="1" fill="rgb(204, 204, 204)" fill-opacity="0.25" points="1392.509,812.407 1372.971,905.409 1450.440,1245.325 1450.440,781.452 " />
<polygon stroke="black" stroke-width="1" fill="rgb(204, 204, 204)" fill-opacity="0.25" points="800.984,793.921 787.534,621.042 660.527,866.766 " />
<polygon stroke="black" stroke-width="1" fill="rgb(204, 204, 204)" fill-opacity="0.25" points="887.920,1244.055 887.920,792.650 800.984,793.921 800.984,1245.325 " />
<polygon stroke="black" stroke-width="1" fill="rgb(204, 204, 204)" fill-opacity="0.25" points="887.920,792.650 874.469,619.772 787.534,621.042 800.984,793.921 " />
<polygon stroke="black" stroke-width="1" fill="rgb(204, 204, 204)" fill-opacity="0.25" points="1578.541,216.631 1652.857,672.114 1694.110,655.712 1619.794,200.229 " />
<polygon stroke="black" stroke-width="1" fill="rgb(204, 204, 204)" fill-opacity="0.25" points="1619.794,200.229 1694.110,655.712 1722.297,262.019 " />
<polygon stroke="black" stroke-width="1" fill="rgb(204, 204, 204)" fill-opacity="0.25" points="1722.297,34.988 1619.794,200.229 1722.297,262.019 " />
<polygon stroke="black" stroke-width="1" fill="rgb(204, 204, 204)" fill-opacity="0.25" points="800.984,1245.325 800.984,793.921 660.527,866.766 " />
<polygon stroke="black" stroke-width="1" fill="rgb(204, 204, 204)" fill-opacity="0.25" points="281.585,1316.799 329.477,1318.357 227.216,1004.621 " />
<polygon stroke="black" stroke-width="1" fill="rgb(204, 204, 204)" fill-opacity="0.25" points="1151.129,1197.360 1135.935,1007.668 985.347,1129.513 992.948,1224.292 " />
<polygon stroke="black" stroke-width="1" fill="rgb(204, 204, 204)" fill-opacity="0.25" points="343.336,1289.378 289.770,710.322 231.185,806.941 236.957,995.447 " />
<polygon stroke="black" stroke-width="1" fill="rgb(204, 204, 204)" fill-opacity="0.25" points="88.013,640.345 404.558,596.793 268.615,471.085 " />
<polygon stroke="black" stroke-width="1" fill="rgb(204, 204, 204)" fill-opacity="0.25" points="289.770,710.322 209.495,792.468 231.185,806.941 " />
<polygon stroke="black" stroke-width="1" fill="rgb(204, 204, 204)" fill-opacity="0.25" points="992.948,1224.292 985.347,1129.513 961.813,1094.011 974.076,1246.913 " />
<polygon stroke="black" stroke-width="1" fill="rgb(204, 204, 204)" fill-opacity="0.25" points="831.574,341.509 831.574,303.417 660.829,312.848 660.527,332.736 " />
<polygon stroke="black" stroke-width="1" fill="rgb(204, 204, 204)" fill-opacity="0.25" points="236.957,995.447 231.185,806.941 69.785,800.179 72.627,894.429 " />
<polygon stroke="black" stroke-width="1" fill="rgb(204, 204, 204)" fill-opacity="0.25" points="974.076,1246.913 961.813,1094.011 937.260,1196.553 " />
<polygon stroke="black" stroke-width="1" fill="rgb(204, 204, 204)" fill-opacity="0.25" points="1520.416,1226.479 1520.416,1244.716 1538.990,1245.325 1538.990,1215.904 " />
<polygon stroke="black" stroke-width="1" fill="rgb(204, 204, 204)" fill-opacity="0.25" points="72.627,894.429 69.785,800.179 53.055,781.180 57.639,933.228 " />
<polygon stroke="black" stroke-width="1" fill="rgb(204, 204, 204)" fill-opacity="0.25" points="1025.658,341.509 1025.658,309.420 1002.494,320.933 " />
<polygon stroke="black" stroke-width="1" fill="rgb(204, 204, 204)" fill-opacity="0.25" points="57.639,933.228 53.055,781.180 21.488,832.811 " />
<polygon stroke="black" stroke-width="1" fill="rgb(204, 204, 204)" fill-opacity="0.25" points="88.013,640.345 101.522,316.781 34.988,496.185 " />
<polygon stroke="black" stroke-width="1" fill="rgb(204, 204, 204)" fill-opacity="0.25" points="282.039,346.382 268.615,471.085 404.558,363.806 " />
<polygon stroke="black" stroke-width="1" fill="rgb(204, 204, 204)" fill-opacity="0.25" points="282.039,346.382 404.558,363.806 136.925,325.705 " />
<polygon stroke="black" stroke-width="1" fill="rgb(204, 204, 204)" fill-opacity="0.25" points="268.615,471.085 282.039,346.382 136.925,325.705 " />
<polygon stroke="black" stroke-width="1" fill="rgb(204, 204, 204)" fill-opacity="0.25" points="1313.658,1315.302 1542.582,1498.940 1539.309,1332.527 " />
<polygon stroke="black" stroke-width="1" fill="rgb(204, 204, 204)" fill-opacity="0.25" points="88.013,640.345 268.615,471.085 136.925,325.705 " />

</svg>
