<?xml version="1.0" standalone="no"?>
<!DOCTYPE svg PUBLIC "-//W3C//DTD SVG 1.1//EN" 
  "http://www.w3.org/Graphics/SVG/1.1/DTD/svg11.dtd">
<svg width="2048" height="2048" viewBox="0 0 2048 2048"
     xmlns="http://www.w3.org/2000/svg" version="1.1">
<desc>Pincer.blend, (Blender 2.83.5)</desc>
<polygon stroke="black" stroke-width="1" fill="rgb(204, 204, 204)" fill-opacity="0.25" points="1515.618,761.262 1517.979,909.034 1539.031,930.578 1539.031,728.705 1531.259,728.217 " />
<polygon stroke="black" stroke-width="1" fill="rgb(204, 204, 204)" fill-opacity="0.25" points="1831.793,2012.057 1857.424,1986.427 1857.424,1558.451 1831.793,1532.820 1737.615,1532.820 1737.615,2012.057 " />
<polygon stroke="black" stroke-width="1" fill="rgb(204, 204, 204)" fill-opacity="0.25" points="1104.643,179.869 985.105,179.869 984.373,366.272 1046.772,425.934 1046.784,425.934 1104.843,356.332 " />
<polygon stroke="black" stroke-width="1" fill="rgb(204, 204, 204)" fill-opacity="0.25" points="1873.508,1563.638 1873.508,1999.608 1907.851,2013.255 1968.146,1959.714 1912.695,1781.623 1968.146,1603.532 1907.851,1549.991 " />
<polygon stroke="black" stroke-width="1" fill="rgb(204, 204, 204)" fill-opacity="0.25" points="1491.054,749.760 1488.693,897.532 1504.334,930.578 1512.106,930.089 1512.106,728.217 " />
<polygon stroke="black" stroke-width="1" fill="rgb(204, 204, 204)" fill-opacity="0.25" points="963.390,602.839 963.390,166.869 941.756,145.236 941.756,624.473 " />
<polygon stroke="black" stroke-width="1" fill="rgb(204, 204, 204)" fill-opacity="0.25" points="1581.863,1532.820 1462.053,1532.820 1462.053,1986.427 1487.684,2012.057 1581.863,2012.057 " />
<polygon stroke="black" stroke-width="1" fill="rgb(204, 204, 204)" fill-opacity="0.25" points="1172.214,913.057 1172.214,477.086 989.073,620.801 989.073,675.319 1138.423,575.262 1138.423,814.881 989.073,714.824 989.073,769.343 " />
<polygon stroke="black" stroke-width="1" fill="rgb(204, 204, 204)" fill-opacity="0.25" points="11.086,462.186 158.893,455.480 158.893,241.922 84.996,241.446 " />
<polygon stroke="black" stroke-width="1" fill="rgb(204, 204, 204)" fill-opacity="0.25" points="176.412,1787.679 230.931,1787.679 250.683,1760.596 270.436,1787.679 324.954,1787.679 324.954,1568.029 264.403,1507.478 236.963,1507.478 176.412,1568.029 " />
<polygon stroke="black" stroke-width="1" fill="rgb(204, 204, 204)" fill-opacity="0.25" points="328.871,248.153 181.064,241.446 254.974,462.186 328.870,461.710 " />
<polygon stroke="black" stroke-width="1" fill="rgb(204, 204, 204)" fill-opacity="0.25" points="1900.083,1182.822 1974.016,1182.822 1974.016,963.172 1900.083,963.172 " />
<polygon stroke="black" stroke-width="1" fill="rgb(204, 204, 204)" fill-opacity="0.25" points="32.698,1945.657 468.668,1945.657 324.954,1787.679 270.436,1787.679 370.492,1924.870 130.874,1924.870 230.931,1787.679 176.412,1787.679 " />
<polygon stroke="black" stroke-width="1" fill="rgb(204, 204, 204)" fill-opacity="0.25" points="1900.083,650.425 1974.016,686.067 1974.016,578.943 1900.083,578.943 " />
<polygon stroke="black" stroke-width="1" fill="rgb(204, 204, 204)" fill-opacity="0.25" points="340.151,1431.730 400.702,1492.281 456.758,581.085 392.348,581.085 " />
<polygon stroke="black" stroke-width="1" fill="rgb(204, 204, 204)" fill-opacity="0.25" points="699.430,1056.314 688.990,995.469 664.081,970.560 588.333,1046.308 648.884,1106.859 " />
<polygon stroke="black" stroke-width="1" fill="rgb(204, 204, 204)" fill-opacity="0.25" points="980.883,153.380 1054.816,153.380 1054.816,46.256 980.883,46.256 " />
<polygon stroke="black" stroke-width="1" fill="rgb(204, 204, 204)" fill-opacity="0.25" points="1382.211,123.546 1407.413,45.436 1329.569,45.436 1354.771,123.546 " />
<polygon stroke="black" stroke-width="1" fill="rgb(204, 204, 204)" fill-opacity="0.25" points="1974.016,710.575 1900.083,710.575 1900.083,930.225 1974.016,930.225 " />
<polygon stroke="black" stroke-width="1" fill="rgb(204, 204, 204)" fill-opacity="0.25" points="1633.924,515.488 1559.991,515.488 1559.991,1428.408 1633.924,1428.408 " />
<polygon stroke="black" stroke-width="1" fill="rgb(204, 204, 204)" fill-opacity="0.25" points="2016.331,1218.703 1903.036,1218.703 1943.938,1477.470 1975.428,1477.470 " />
<polygon stroke="black" stroke-width="1" fill="rgb(204, 204, 204)" fill-opacity="0.25" points="1533.499,80.003 1459.566,80.003 1459.566,187.127 1533.499,187.127 " />
<polygon stroke="black" stroke-width="1" fill="rgb(204, 204, 204)" fill-opacity="0.25" points="812.623,750.910 758.105,750.910 738.352,777.993 718.600,750.910 664.081,750.910 664.081,970.560 688.990,995.469 787.714,995.469 812.623,970.560 " />
<polygon stroke="black" stroke-width="1" fill="rgb(204, 204, 204)" fill-opacity="0.25" points="264.403,1507.478 324.954,1568.029 400.702,1492.281 340.151,1431.730 " />
<polygon stroke="black" stroke-width="1" fill="rgb(204, 204, 204)" fill-opacity="0.25" points="176.412,1568.029 236.963,1507.478 161.215,1431.730 100.664,1492.281 " />
<polygon stroke="black" stroke-width="1" fill="rgb(204, 204, 204)" fill-opacity="0.25" points="419.434,88.022 345.501,123.664 345.501,195.146 419.434,195.146 " />
<polygon stroke="black" stroke-width="1" fill="rgb(204, 204, 204)" fill-opacity="0.25" points="1710.313,138.530 1710.313,64.597 1645.902,64.597 1645.902,138.530 " />
<polygon stroke="black" stroke-width="1" fill="rgb(204, 204, 204)" fill-opacity="0.25" points="429.810,123.703 429.810,197.636 494.220,197.636 494.220,123.703 " />
<polygon stroke="black" stroke-width="1" fill="rgb(204, 204, 204)" fill-opacity="0.25" points="648.884,1106.859 588.333,1046.308 532.277,1957.505 596.688,1957.505 " />
<polygon stroke="black" stroke-width="1" fill="rgb(204, 204, 204)" fill-opacity="0.25" points="1803.970,580.713 1730.037,580.713 1730.037,1432.959 1803.970,1432.959 " />
<polygon stroke="black" stroke-width="1" fill="rgb(204, 204, 204)" fill-opacity="0.25" points="1815.060,1432.959 1888.993,1432.959 1888.993,580.713 1815.060,580.713 " />
<polygon stroke="black" stroke-width="1" fill="rgb(204, 204, 204)" fill-opacity="0.25" points="100.664,1492.281 161.215,1431.730 109.019,581.085 44.609,581.085 " />
<polygon stroke="black" stroke-width="1" fill="rgb(204, 204, 204)" fill-opacity="0.25" points="1645.014,1428.408 1718.947,1428.408 1718.947,515.488 1645.014,515.488 " />
<polygon stroke="black" stroke-width="1" fill="rgb(204, 204, 204)" fill-opacity="0.25" points="888.371,1046.308 827.820,1106.859 880.016,1957.505 944.427,1957.505 " />
<polygon stroke="black" stroke-width="1" fill="rgb(204, 204, 204)" fill-opacity="0.25" points="931.148,240.150 811.339,240.150 811.339,631.095 931.148,631.095 " />
<polygon stroke="black" stroke-width="1" fill="rgb(204, 204, 204)" fill-opacity="0.25" points="266.576,215.905 266.576,96.095 146.766,96.095 146.766,215.905 " />
<polygon stroke="black" stroke-width="1" fill="rgb(204, 204, 204)" fill-opacity="0.25" points="1194.935,570.530 1314.745,570.530 1314.745,179.585 1194.935,179.585 " />
<polygon stroke="black" stroke-width="1" fill="rgb(204, 204, 204)" fill-opacity="0.25" points="1719.643,1532.820 1599.834,1532.820 1599.834,2012.057 1694.013,2012.057 1719.643,1986.427 " />
<polygon stroke="black" stroke-width="1" fill="rgb(204, 204, 204)" fill-opacity="0.25" points="103.164,213.250 128.795,187.620 128.795,58.047 8.986,58.047 8.986,213.250 " />
<polygon stroke="black" stroke-width="1" fill="rgb(204, 204, 204)" fill-opacity="0.25" points="808.274,82.034 808.274,201.844 887.216,201.844 887.216,82.034 " />
<polygon stroke="black" stroke-width="1" fill="rgb(204, 204, 204)" fill-opacity="0.25" points="1035.975,1372.642 987.927,1435.278 1000.582,1460.935 1155.785,1460.935 1155.785,981.698 1035.975,981.697 " />
<polygon stroke="black" stroke-width="1" fill="rgb(204, 204, 204)" fill-opacity="0.25" points="1853.287,204.865 1853.287,85.055 1733.478,85.055 1733.478,204.865 " />
<polygon stroke="black" stroke-width="1" fill="rgb(204, 204, 204)" fill-opacity="0.25" points="664.560,147.669 664.560,277.241 690.190,302.871 784.369,302.871 784.369,147.669 " />
<polygon stroke="black" stroke-width="1" fill="rgb(204, 204, 204)" fill-opacity="0.25" points="1374.000,1460.935 1493.809,1460.935 1493.809,1069.990 1541.857,1007.354 1529.202,981.698 1399.630,981.698 1373.999,1007.328 " />
<polygon stroke="black" stroke-width="1" fill="rgb(204, 204, 204)" fill-opacity="0.25" points="1320.669,2012.057 1440.478,2012.057 1440.478,1558.451 1414.848,1532.820 1285.276,1532.821 1272.621,1558.476 1320.669,1621.113 " />
<polygon stroke="black" stroke-width="1" fill="rgb(204, 204, 204)" fill-opacity="0.25" points="1348.821,981.698 1193.618,981.698 1180.963,1007.354 1229.011,1069.990 1229.011,1460.935 1348.821,1460.935 " />
<polygon stroke="black" stroke-width="1" fill="rgb(204, 204, 204)" fill-opacity="0.25" points="1116.024,315.594 1116.024,435.403 1144.631,435.403 1144.631,315.594 " />
<polygon stroke="black" stroke-width="1" fill="rgb(204, 204, 204)" fill-opacity="0.25" points="1148.922,315.594 1148.922,435.403 1177.529,435.403 1177.529,315.594 " />
<polygon stroke="black" stroke-width="1" fill="rgb(204, 204, 204)" fill-opacity="0.25" points="1408.594,258.199 1408.594,138.390 1329.651,138.390 1329.651,258.199 " />
<polygon stroke="black" stroke-width="1" fill="rgb(204, 204, 204)" fill-opacity="0.25" points="1467.308,622.410 1406.570,633.411 1205.579,923.196 1467.308,911.774 " />
<polygon stroke="black" stroke-width="1" fill="rgb(204, 204, 204)" fill-opacity="0.25" points="812.623,970.560 787.714,995.469 777.274,1056.314 827.820,1106.859 888.371,1046.308 " />
<polygon stroke="black" stroke-width="1" fill="rgb(204, 204, 204)" fill-opacity="0.25" points="1537.704,221.554 1459.859,221.554 1483.036,573.458 1514.526,573.458 " />
<polygon stroke="black" stroke-width="1" fill="rgb(204, 204, 204)" fill-opacity="0.25" points="721.986,626.855 782.724,637.856 782.724,348.492 520.996,337.070 " />
<polygon stroke="black" stroke-width="1" fill="rgb(204, 204, 204)" fill-opacity="0.25" points="1339.514,578.155 1438.237,578.155 1445.523,288.881 1332.227,288.881 " />
<polygon stroke="black" stroke-width="1" fill="rgb(204, 204, 204)" fill-opacity="0.25" points="736.550,42.596 661.224,85.954 729.701,129.338 736.550,129.510 " />
<polygon stroke="black" stroke-width="1" fill="rgb(204, 204, 204)" fill-opacity="0.25" points="1560.095,94.198 1635.422,137.557 1635.422,50.642 1628.573,50.814 " />
<polygon stroke="black" stroke-width="1" fill="rgb(204, 204, 204)" fill-opacity="0.25" points="1621.702,163.832 1563.432,233.444 1563.432,401.632 1589.062,427.262 1683.241,427.262 1683.241,225.359 1621.714,163.832 " />
<polygon stroke="black" stroke-width="1" fill="rgb(204, 204, 204)" fill-opacity="0.25" points="1448.260,264.467 1448.260,228.219 1416.869,246.343 " />
<polygon stroke="black" stroke-width="1" fill="rgb(204, 204, 204)" fill-opacity="0.25" points="1489.292,662.377 1520.683,680.501 1520.683,644.254 " />
<polygon stroke="black" stroke-width="1" fill="rgb(204, 204, 204)" fill-opacity="0.25" points="1147.624,267.642 1116.233,285.766 1147.624,303.889 " />
<polygon stroke="black" stroke-width="1" fill="rgb(204, 204, 204)" fill-opacity="0.25" points="1520.683,638.817 1520.683,602.569 1489.292,620.693 " />
<polygon stroke="black" stroke-width="1" fill="rgb(204, 204, 204)" fill-opacity="0.25" points="1827.656,497.037 1853.287,471.407 1853.287,303.219 1795.017,233.607 1795.005,233.607 1733.478,295.135 1733.478,497.037 " />
<polygon stroke="black" stroke-width="1" fill="rgb(204, 204, 204)" fill-opacity="0.25" points="1187.723,2012.057 1241.465,1944.279 1201.229,1772.439 1241.465,1600.599 1187.723,1532.820 1019.535,1532.820 993.905,1558.451 993.905,1986.427 1019.535,2012.057 " />
<polygon stroke="black" stroke-width="1" fill="rgb(204, 204, 204)" fill-opacity="0.25" points="1267.705,52.675 1191.654,102.246 1267.705,143.456 1267.705,52.675 " />
<polygon stroke="black" stroke-width="1" fill="rgb(204, 204, 204)" fill-opacity="0.25" points="1142.116,154.606 1142.117,63.825 1066.065,105.034 1142.116,154.606 " />
<polygon stroke="black" stroke-width="1" fill="rgb(204, 204, 204)" fill-opacity="0.25" points="1929.380,498.340 1991.778,438.678 1991.046,252.275 1871.508,252.275 1871.308,428.738 1929.368,498.340 " />
<polygon stroke="black" stroke-width="1" fill="rgb(204, 204, 204)" fill-opacity="0.25" points="350.013,460.771 484.107,460.771 484.107,221.152 350.013,221.152 " />
<polygon stroke="black" stroke-width="1" fill="rgb(204, 204, 204)" fill-opacity="0.25" points="1873.463,218.571 1947.396,218.571 1947.396,185.050 2006.424,15.249 1872.330,15.249 1873.463,185.050 " />
<polygon stroke="black" stroke-width="1" fill="rgb(204, 204, 204)" fill-opacity="0.25" points="645.517,95.940 511.423,95.940 570.451,265.741 570.451,299.262 644.384,299.262 644.384,265.741 " />

</svg>
