<?xml version="1.0" standalone="no"?>
<!DOCTYPE svg PUBLIC "-//W3C//DTD SVG 1.1//EN" 
  "http://www.w3.org/Graphics/SVG/1.1/DTD/svg11.dtd">
<svg width="2048" height="2048" viewBox="0 0 2048 2048"
     xmlns="http://www.w3.org/2000/svg" version="1.1">
<desc>Pincer.blend, (Blender 2.83.5)</desc>
<polygon stroke="black" stroke-width="1" fill="rgb(204, 204, 204)" fill-opacity="0.25" points="508.294,166.909 67.529,166.909 67.529,857.091 508.294,857.091 " />
<polygon stroke="black" stroke-width="1" fill="rgb(204, 204, 204)" fill-opacity="0.25" points="480.331,28.981 239.318,71.685 80.702,71.685 504.882,71.685 " />
<polygon stroke="black" stroke-width="1" fill="rgb(204, 204, 204)" fill-opacity="0.25" points="504.882,952.315 80.702,952.315 239.318,952.315 480.331,995.019 " />
<polygon stroke="black" stroke-width="1" fill="rgb(204, 204, 204)" fill-opacity="0.25" points="242.719,1264.935 238.740,1271.654 238.740,1729.790 242.719,1736.509 522.177,1736.509 561.812,1718.677 561.812,1282.768 522.177,1264.935 " />
<polygon stroke="black" stroke-width="1" fill="rgb(204, 204, 204)" fill-opacity="0.25" points="713.370,1222.027 895.063,1222.027 870.467,1127.431 677.974,1164.412 " />
<polygon stroke="black" stroke-width="1" fill="rgb(204, 204, 204)" fill-opacity="0.25" points="67.529,166.909 508.294,166.909 504.882,71.685 80.702,71.685 " />
<polygon stroke="black" stroke-width="1" fill="rgb(204, 204, 204)" fill-opacity="0.25" points="895.063,1779.417 713.370,1779.417 677.974,1837.032 870.467,1874.014 " />
<polygon stroke="black" stroke-width="1" fill="rgb(204, 204, 204)" fill-opacity="0.25" points="895.063,1222.027 713.370,1222.027 713.370,1779.417 895.063,1779.417 " />
<polygon stroke="black" stroke-width="1" fill="rgb(204, 204, 204)" fill-opacity="0.25" points="18.620,809.684 23.757,837.865 80.702,952.315 67.529,857.091 " />
<polygon stroke="black" stroke-width="1" fill="rgb(204, 204, 204)" fill-opacity="0.25" points="561.812,1718.677 522.177,1736.509 677.974,1837.032 713.370,1779.417 " />
<polygon stroke="black" stroke-width="1" fill="rgb(204, 204, 204)" fill-opacity="0.25" points="522.177,1264.935 561.812,1282.768 713.370,1222.027 677.974,1164.412 " />
<polygon stroke="black" stroke-width="1" fill="rgb(204, 204, 204)" fill-opacity="0.25" points="23.757,186.135 18.620,214.316 67.529,166.909 80.702,71.685 " />
<polygon stroke="black" stroke-width="1" fill="rgb(204, 204, 204)" fill-opacity="0.25" points="18.620,214.316 18.620,809.684 67.529,857.091 67.529,166.909 " />
<polygon stroke="black" stroke-width="1" fill="rgb(204, 204, 204)" fill-opacity="0.25" points="219.869,1174.857 542.815,1174.857 633.340,1060.407 257.868,1060.407 " />
<polygon stroke="black" stroke-width="1" fill="rgb(204, 204, 204)" fill-opacity="0.25" points="257.868,1941.037 633.340,1941.037 542.815,1826.587 219.869,1826.587 " />
<polygon stroke="black" stroke-width="1" fill="rgb(204, 204, 204)" fill-opacity="0.25" points="713.370,1779.417 713.370,1222.027 561.812,1282.768 561.812,1718.677 " />
<polygon stroke="black" stroke-width="1" fill="rgb(204, 204, 204)" fill-opacity="0.25" points="1752.010,1692.150 1767.620,1682.323 1767.620,1319.121 1752.010,1309.295 1175.024,1290.729 1159.414,1319.121 1159.414,1682.323 1175.024,1710.715 " />
<polygon stroke="black" stroke-width="1" fill="rgb(204, 204, 204)" fill-opacity="0.25" points="1752.010,1309.295 1767.620,1319.121 1892.824,1155.631 1798.475,1060.407 " />
<polygon stroke="black" stroke-width="1" fill="rgb(204, 204, 204)" fill-opacity="0.25" points="1138.932,1679.235 1135.483,1658.946 1023.924,1779.417 1088.086,1874.014 " />
<polygon stroke="black" stroke-width="1" fill="rgb(204, 204, 204)" fill-opacity="0.25" points="1135.483,1342.499 1138.932,1322.209 1088.086,1127.431 1023.924,1222.027 " />
<polygon stroke="black" stroke-width="1" fill="rgb(204, 204, 204)" fill-opacity="0.25" points="1767.620,1682.323 1752.010,1692.150 1798.475,1941.037 1892.824,1845.813 " />
<polygon stroke="black" stroke-width="1" fill="rgb(204, 204, 204)" fill-opacity="0.25" points="639.297,693.601 639.297,330.399 508.294,166.909 508.294,857.091 " />
<polygon stroke="black" stroke-width="1" fill="rgb(204, 204, 204)" fill-opacity="0.25" points="1175.024,1290.729 1752.010,1309.295 1798.475,1060.407 1117.320,1017.703 " />
<polygon stroke="black" stroke-width="1" fill="rgb(204, 204, 204)" fill-opacity="0.25" points="1117.320,1983.741 1798.475,1941.037 1752.010,1692.150 1175.024,1710.715 " />
<polygon stroke="black" stroke-width="1" fill="rgb(204, 204, 204)" fill-opacity="0.25" points="1023.924,1222.027 1023.924,1779.417 1135.483,1658.946 1135.483,1342.499 " />
<polygon stroke="black" stroke-width="1" fill="rgb(204, 204, 204)" fill-opacity="0.25" points="80.702,952.315 504.882,952.315 508.294,857.091 67.529,857.091 " />
<polygon stroke="black" stroke-width="1" fill="rgb(204, 204, 204)" fill-opacity="0.25" points="238.740,1271.654 242.719,1264.935 219.869,1174.857 205.915,1203.038 " />
<polygon stroke="black" stroke-width="1" fill="rgb(204, 204, 204)" fill-opacity="0.25" points="677.974,1837.032 522.177,1736.509 542.815,1826.587 633.340,1941.037 " />
<polygon stroke="black" stroke-width="1" fill="rgb(204, 204, 204)" fill-opacity="0.25" points="522.177,1264.935 677.974,1164.412 633.340,1060.407 542.815,1174.857 " />
<polygon stroke="black" stroke-width="1" fill="rgb(204, 204, 204)" fill-opacity="0.25" points="242.719,1736.509 238.740,1729.790 205.915,1798.407 219.869,1826.587 " />
<polygon stroke="black" stroke-width="1" fill="rgb(204, 204, 204)" fill-opacity="0.25" points="238.740,1729.790 238.740,1271.654 205.915,1203.038 205.915,1798.407 " />
<polygon stroke="black" stroke-width="1" fill="rgb(204, 204, 204)" fill-opacity="0.25" points="242.719,1264.935 522.177,1264.935 542.815,1174.857 219.869,1174.857 " />
<polygon stroke="black" stroke-width="1" fill="rgb(204, 204, 204)" fill-opacity="0.25" points="522.177,1736.509 242.719,1736.509 219.869,1826.587 542.815,1826.587 " />
<polygon stroke="black" stroke-width="1" fill="rgb(204, 204, 204)" fill-opacity="0.25" points="1138.932,1679.235 1088.086,1874.014 1117.320,1983.741 1175.024,1710.715 " />
<polygon stroke="black" stroke-width="1" fill="rgb(204, 204, 204)" fill-opacity="0.25" points="1135.483,1658.946 1138.932,1679.235 1175.024,1710.715 1159.414,1682.323 " />
<polygon stroke="black" stroke-width="1" fill="rgb(204, 204, 204)" fill-opacity="0.25" points="1138.932,1322.209 1135.483,1342.499 1159.414,1319.121 1175.024,1290.729 " />
<polygon stroke="black" stroke-width="1" fill="rgb(204, 204, 204)" fill-opacity="0.25" points="1088.086,1127.431 1138.932,1322.209 1175.024,1290.729 1117.320,1017.703 " />
<polygon stroke="black" stroke-width="1" fill="rgb(204, 204, 204)" fill-opacity="0.25" points="1135.483,1342.499 1135.483,1658.946 1159.414,1682.323 1159.414,1319.121 " />
<polygon stroke="black" stroke-width="1" fill="rgb(204, 204, 204)" fill-opacity="0.25" points="677.974,1164.412 870.467,1127.431 866.385,1017.703 633.340,1060.407 " />
<polygon stroke="black" stroke-width="1" fill="rgb(204, 204, 204)" fill-opacity="0.25" points="870.467,1874.014 677.974,1837.032 633.340,1941.037 866.385,1983.741 " />

</svg>
