<?xml version="1.0" standalone="no"?>
<!DOCTYPE svg PUBLIC "-//W3C//DTD SVG 1.1//EN" 
  "http://www.w3.org/Graphics/SVG/1.1/DTD/svg11.dtd">
<svg width="2048" height="2048" viewBox="0 0 2048 2048"
     xmlns="http://www.w3.org/2000/svg" version="1.1">
<desc>SquareThruster.blend, (Blender 2.83.5)</desc>
<polygon stroke="black" stroke-width="1" fill="rgb(204, 204, 204)" fill-opacity="0.25" points="1507.218,1023.559 1762.776,768.000 1507.218,512.441 " />
<polygon stroke="black" stroke-width="1" fill="rgb(204, 204, 204)" fill-opacity="0.25" points="1507.218,512.441 1762.776,768.000 2018.335,512.441 " />
<polygon stroke="black" stroke-width="1" fill="rgb(204, 204, 204)" fill-opacity="0.25" points="2018.335,512.441 1762.776,768.000 2018.335,1023.559 " />
<polygon stroke="black" stroke-width="1" fill="rgb(204, 204, 204)" fill-opacity="0.25" points="2018.335,1023.559 1762.776,768.000 1507.218,1023.559 " />
<polygon stroke="black" stroke-width="1" fill="rgb(204, 204, 204)" fill-opacity="0.25" points="1507.218,0.441 2018.335,0.441 2018.335,511.559 1507.218,511.559 " />
<polygon stroke="black" stroke-width="1" fill="rgb(204, 204, 204)" fill-opacity="0.25" points="0.441,164.309 0.441,917.256 376.915,917.256 376.915,164.309 " />
<polygon stroke="black" stroke-width="1" fill="rgb(204, 204, 204)" fill-opacity="0.25" points="376.915,164.309 376.915,917.256 753.388,917.255 753.388,164.309 " />
<polygon stroke="black" stroke-width="1" fill="rgb(204, 204, 204)" fill-opacity="0.25" points="1573.610,1469.167 1951.943,1469.167 1951.943,1469.167 1573.610,1469.167 " />
<polygon stroke="black" stroke-width="1" fill="rgb(204, 204, 204)" fill-opacity="0.25" points="753.388,164.309 753.388,917.255 1129.862,917.255 1129.862,164.309 " />
<polygon stroke="black" stroke-width="1" fill="rgb(204, 204, 204)" fill-opacity="0.25" points="1129.862,164.309 1129.862,917.255 1506.335,917.255 1506.335,164.309 " />
<polygon stroke="black" stroke-width="1" fill="rgb(204, 204, 204)" fill-opacity="0.25" points="1507.218,1536.441 2018.335,1536.441 2018.335,2047.559 1507.218,2047.559 " />
<polygon stroke="black" stroke-width="1" fill="rgb(204, 204, 204)" fill-opacity="0.25" points="1573.610,1090.833 1951.943,1090.833 2018.335,1024.441 1507.218,1024.441 " />
<polygon stroke="black" stroke-width="1" fill="rgb(204, 204, 204)" fill-opacity="0.25" points="1951.943,1090.833 1951.943,1469.167 2018.335,1535.559 2018.335,1024.441 " />
<polygon stroke="black" stroke-width="1" fill="rgb(204, 204, 204)" fill-opacity="0.25" points="1951.943,1469.167 1573.610,1469.167 1507.218,1535.559 2018.335,1535.559 " />
<polygon stroke="black" stroke-width="1" fill="rgb(204, 204, 204)" fill-opacity="0.25" points="1573.610,1469.167 1573.610,1090.833 1507.218,1024.441 1507.218,1535.559 " />
<polygon stroke="black" stroke-width="1" fill="rgb(204, 204, 204)" fill-opacity="0.25" points="1951.943,1090.833 1573.610,1090.833 1573.610,1469.167 1951.943,1469.167 " />
<polygon stroke="black" stroke-width="1" fill="rgb(204, 204, 204)" fill-opacity="0.25" points="1951.943,1090.833 1573.610,1090.833 1573.610,1090.833 1951.943,1090.833 " />
<polygon stroke="black" stroke-width="1" fill="rgb(204, 204, 204)" fill-opacity="0.25" points="1573.610,1090.833 1573.610,1469.167 1573.610,1469.167 1573.610,1090.833 " />
<polygon stroke="black" stroke-width="1" fill="rgb(204, 204, 204)" fill-opacity="0.25" points="1951.943,1469.167 1951.943,1090.833 1951.943,1090.833 1951.943,1469.167 " />
<polygon stroke="black" stroke-width="1" fill="rgb(204, 204, 204)" fill-opacity="0.25" points="1506.335,1671.085 1506.335,1294.612 1129.862,1294.612 1129.862,1671.085 " />
<polygon stroke="black" stroke-width="1" fill="rgb(204, 204, 204)" fill-opacity="0.25" points="1129.862,1671.085 1129.862,1294.612 753.388,1294.612 753.388,1671.085 " />
<polygon stroke="black" stroke-width="1" fill="rgb(204, 204, 204)" fill-opacity="0.25" points="753.388,1671.085 753.388,1294.612 376.915,1294.612 376.915,1671.085 " />
<polygon stroke="black" stroke-width="1" fill="rgb(204, 204, 204)" fill-opacity="0.25" points="376.915,1671.085 376.915,1294.612 0.441,1294.612 0.441,1671.085 " />
<polygon stroke="black" stroke-width="1" fill="rgb(204, 204, 204)" fill-opacity="0.25" points="753.388,2047.559 753.388,1671.085 376.915,1671.085 376.915,2047.559 " />
<polygon stroke="black" stroke-width="1" fill="rgb(204, 204, 204)" fill-opacity="0.25" points="753.388,1294.612 753.388,918.138 376.915,918.138 376.915,1294.612 " />

</svg>
