<?xml version="1.0" standalone="no"?>
<!DOCTYPE svg PUBLIC "-//W3C//DTD SVG 1.1//EN" 
  "http://www.w3.org/Graphics/SVG/1.1/DTD/svg11.dtd">
<svg width="1024" height="1024" viewBox="0 0 1024 1024"
     xmlns="http://www.w3.org/2000/svg" version="1.1">
<desc>, (Blender 2.83.5)</desc>
<polygon stroke="black" stroke-width="1" fill="rgb(204, 204, 204)" fill-opacity="1" points="256.000,522.240 256.000,768.000 350.048,540.947 " />
<polygon stroke="black" stroke-width="1" fill="rgb(204, 204, 204)" fill-opacity="1" points="350.048,540.947 256.000,768.000 429.779,594.221 " />
<polygon stroke="black" stroke-width="1" fill="rgb(204, 204, 204)" fill-opacity="1" points="429.779,594.221 256.000,768.000 483.053,673.952 " />
<polygon stroke="black" stroke-width="1" fill="rgb(204, 204, 204)" fill-opacity="1" points="483.053,673.952 256.000,768.000 501.760,768.000 " />
<polygon stroke="black" stroke-width="1" fill="rgb(204, 204, 204)" fill-opacity="1" points="501.760,768.000 256.000,768.000 483.053,862.048 " />
<polygon stroke="black" stroke-width="1" fill="rgb(204, 204, 204)" fill-opacity="1" points="483.053,862.048 256.000,768.000 429.779,941.779 " />
<polygon stroke="black" stroke-width="1" fill="rgb(204, 204, 204)" fill-opacity="1" points="429.779,941.779 256.000,768.000 350.048,995.053 " />
<polygon stroke="black" stroke-width="1" fill="rgb(204, 204, 204)" fill-opacity="1" points="350.048,995.053 256.000,768.000 256.000,1013.760 " />
<polygon stroke="black" stroke-width="1" fill="rgb(204, 204, 204)" fill-opacity="1" points="256.000,1013.760 256.000,768.000 161.952,995.053 " />
<polygon stroke="black" stroke-width="1" fill="rgb(204, 204, 204)" fill-opacity="1" points="161.952,995.053 256.000,768.000 82.221,941.779 " />
<polygon stroke="black" stroke-width="1" fill="rgb(204, 204, 204)" fill-opacity="1" points="82.221,941.779 256.000,768.000 28.947,862.048 " />
<polygon stroke="black" stroke-width="1" fill="rgb(204, 204, 204)" fill-opacity="1" points="28.947,862.048 256.000,768.000 10.240,768.000 " />
<polygon stroke="black" stroke-width="1" fill="rgb(204, 204, 204)" fill-opacity="1" points="10.240,768.000 256.000,768.000 28.947,673.952 " />
<polygon stroke="black" stroke-width="1" fill="rgb(204, 204, 204)" fill-opacity="1" points="28.947,673.952 256.000,768.000 82.221,594.221 " />
<polygon stroke="black" stroke-width="1" fill="rgb(204, 204, 204)" fill-opacity="1" points="82.221,594.221 256.000,768.000 161.952,540.947 " />
<polygon stroke="black" stroke-width="1" fill="rgb(204, 204, 204)" fill-opacity="1" points="161.952,540.947 256.000,768.000 256.000,522.240 " />
<polygon stroke="black" stroke-width="1" fill="rgb(204, 204, 204)" fill-opacity="1" points="768.000,522.240 862.048,540.947 941.779,594.221 995.053,673.952 1013.760,768.000 995.053,862.048 941.779,941.779 862.048,995.053 768.000,1013.760 673.952,995.053 594.221,941.779 540.947,862.048 522.240,768.000 540.947,673.952 594.221,594.221 673.952,540.947 " />
<polygon stroke="black" stroke-width="1" fill="rgb(204, 204, 204)" fill-opacity="1" points="768.000,768.000 768.000,522.240 862.048,540.947 " />
<polygon stroke="black" stroke-width="1" fill="rgb(204, 204, 204)" fill-opacity="1" points="256.000,768.000 350.048,540.947 256.000,522.240 " />
<polygon stroke="black" stroke-width="1" fill="rgb(204, 204, 204)" fill-opacity="1" points="1024.000,512.000 1024.000,0.000 960.000,0.000 960.000,512.000 " />
<polygon stroke="black" stroke-width="1" fill="rgb(204, 204, 204)" fill-opacity="1" points="768.000,768.000 862.048,540.947 941.779,594.221 " />
<polygon stroke="black" stroke-width="1" fill="rgb(204, 204, 204)" fill-opacity="1" points="256.000,768.000 429.779,594.221 350.048,540.947 " />
<polygon stroke="black" stroke-width="1" fill="rgb(204, 204, 204)" fill-opacity="1" points="960.000,512.000 960.000,0.000 896.000,0.000 896.000,512.000 " />
<polygon stroke="black" stroke-width="1" fill="rgb(204, 204, 204)" fill-opacity="1" points="768.000,768.000 941.779,594.221 995.053,673.952 " />
<polygon stroke="black" stroke-width="1" fill="rgb(204, 204, 204)" fill-opacity="1" points="256.000,768.000 483.053,673.952 429.779,594.221 " />
<polygon stroke="black" stroke-width="1" fill="rgb(204, 204, 204)" fill-opacity="1" points="896.000,512.000 896.000,0.000 832.000,0.000 832.000,512.000 " />
<polygon stroke="black" stroke-width="1" fill="rgb(204, 204, 204)" fill-opacity="1" points="768.000,768.000 995.053,673.952 1013.760,768.000 " />
<polygon stroke="black" stroke-width="1" fill="rgb(204, 204, 204)" fill-opacity="1" points="256.000,768.000 501.760,768.000 483.053,673.952 " />
<polygon stroke="black" stroke-width="1" fill="rgb(204, 204, 204)" fill-opacity="1" points="832.000,512.000 832.000,0.000 768.000,0.000 768.000,512.000 " />
<polygon stroke="black" stroke-width="1" fill="rgb(204, 204, 204)" fill-opacity="1" points="768.000,768.000 1013.760,768.000 995.053,862.048 " />
<polygon stroke="black" stroke-width="1" fill="rgb(204, 204, 204)" fill-opacity="1" points="256.000,768.000 483.053,862.048 501.760,768.000 " />
<polygon stroke="black" stroke-width="1" fill="rgb(204, 204, 204)" fill-opacity="1" points="768.000,512.000 768.000,0.000 704.000,0.000 704.000,512.000 " />
<polygon stroke="black" stroke-width="1" fill="rgb(204, 204, 204)" fill-opacity="1" points="768.000,768.000 995.053,862.048 941.779,941.779 " />
<polygon stroke="black" stroke-width="1" fill="rgb(204, 204, 204)" fill-opacity="1" points="256.000,768.000 429.779,941.779 483.053,862.048 " />
<polygon stroke="black" stroke-width="1" fill="rgb(204, 204, 204)" fill-opacity="1" points="704.000,512.000 704.000,0.000 640.000,0.000 640.000,512.000 " />
<polygon stroke="black" stroke-width="1" fill="rgb(204, 204, 204)" fill-opacity="1" points="768.000,768.000 941.779,941.779 862.048,995.053 " />
<polygon stroke="black" stroke-width="1" fill="rgb(204, 204, 204)" fill-opacity="1" points="256.000,768.000 350.048,995.053 429.779,941.779 " />
<polygon stroke="black" stroke-width="1" fill="rgb(204, 204, 204)" fill-opacity="1" points="640.000,512.000 640.000,0.000 576.000,0.000 576.000,512.000 " />
<polygon stroke="black" stroke-width="1" fill="rgb(204, 204, 204)" fill-opacity="1" points="768.000,768.000 862.048,995.053 768.000,1013.760 " />
<polygon stroke="black" stroke-width="1" fill="rgb(204, 204, 204)" fill-opacity="1" points="256.000,768.000 256.000,1013.760 350.048,995.053 " />
<polygon stroke="black" stroke-width="1" fill="rgb(204, 204, 204)" fill-opacity="1" points="576.000,512.000 576.000,0.000 512.000,0.000 512.000,512.000 " />
<polygon stroke="black" stroke-width="1" fill="rgb(204, 204, 204)" fill-opacity="1" points="768.000,768.000 768.000,1013.760 673.952,995.053 " />
<polygon stroke="black" stroke-width="1" fill="rgb(204, 204, 204)" fill-opacity="1" points="256.000,768.000 161.952,995.053 256.000,1013.760 " />
<polygon stroke="black" stroke-width="1" fill="rgb(204, 204, 204)" fill-opacity="1" points="512.000,512.000 512.000,0.000 448.000,0.000 448.000,512.000 " />
<polygon stroke="black" stroke-width="1" fill="rgb(204, 204, 204)" fill-opacity="1" points="768.000,768.000 673.952,995.053 594.221,941.779 " />
<polygon stroke="black" stroke-width="1" fill="rgb(204, 204, 204)" fill-opacity="1" points="256.000,768.000 82.221,941.779 161.952,995.053 " />
<polygon stroke="black" stroke-width="1" fill="rgb(204, 204, 204)" fill-opacity="1" points="448.000,512.000 448.000,0.000 384.000,0.000 384.000,512.000 " />
<polygon stroke="black" stroke-width="1" fill="rgb(204, 204, 204)" fill-opacity="1" points="768.000,768.000 594.221,941.779 540.947,862.048 " />
<polygon stroke="black" stroke-width="1" fill="rgb(204, 204, 204)" fill-opacity="1" points="256.000,768.000 28.947,862.048 82.221,941.779 " />
<polygon stroke="black" stroke-width="1" fill="rgb(204, 204, 204)" fill-opacity="1" points="384.000,512.000 384.000,0.000 320.000,0.000 320.000,512.000 " />
<polygon stroke="black" stroke-width="1" fill="rgb(204, 204, 204)" fill-opacity="1" points="768.000,768.000 540.947,862.048 522.240,768.000 " />
<polygon stroke="black" stroke-width="1" fill="rgb(204, 204, 204)" fill-opacity="1" points="256.000,768.000 10.240,768.000 28.947,862.048 " />
<polygon stroke="black" stroke-width="1" fill="rgb(204, 204, 204)" fill-opacity="1" points="320.000,512.000 320.000,0.000 256.000,0.000 256.000,512.000 " />
<polygon stroke="black" stroke-width="1" fill="rgb(204, 204, 204)" fill-opacity="1" points="768.000,768.000 522.240,768.000 540.947,673.952 " />
<polygon stroke="black" stroke-width="1" fill="rgb(204, 204, 204)" fill-opacity="1" points="256.000,768.000 28.947,673.952 10.240,768.000 " />
<polygon stroke="black" stroke-width="1" fill="rgb(204, 204, 204)" fill-opacity="1" points="256.000,512.000 256.000,0.000 192.000,0.000 192.000,512.000 " />
<polygon stroke="black" stroke-width="1" fill="rgb(204, 204, 204)" fill-opacity="1" points="768.000,768.000 540.947,673.952 594.221,594.221 " />
<polygon stroke="black" stroke-width="1" fill="rgb(204, 204, 204)" fill-opacity="1" points="256.000,768.000 82.221,594.221 28.947,673.952 " />
<polygon stroke="black" stroke-width="1" fill="rgb(204, 204, 204)" fill-opacity="1" points="192.000,512.000 192.000,0.000 128.000,0.000 128.000,512.000 " />
<polygon stroke="black" stroke-width="1" fill="rgb(204, 204, 204)" fill-opacity="1" points="768.000,768.000 594.221,594.221 673.952,540.947 " />
<polygon stroke="black" stroke-width="1" fill="rgb(204, 204, 204)" fill-opacity="1" points="256.000,768.000 161.952,540.947 82.221,594.221 " />
<polygon stroke="black" stroke-width="1" fill="rgb(204, 204, 204)" fill-opacity="1" points="128.000,512.000 128.000,0.000 64.000,0.000 64.000,512.000 " />
<polygon stroke="black" stroke-width="1" fill="rgb(204, 204, 204)" fill-opacity="1" points="768.000,768.000 673.952,540.947 768.000,522.240 " />
<polygon stroke="black" stroke-width="1" fill="rgb(204, 204, 204)" fill-opacity="1" points="256.000,768.000 256.000,522.240 161.952,540.947 " />
<polygon stroke="black" stroke-width="1" fill="rgb(204, 204, 204)" fill-opacity="1" points="64.000,512.000 64.000,0.000 0.000,0.000 0.000,512.000 " />
<polygon stroke="black" stroke-width="1" fill="rgb(204, 204, 204)" fill-opacity="1" points="949.508,692.817 964.463,768.000 964.463,768.000 949.508,692.817 " />
<polygon stroke="black" stroke-width="1" fill="rgb(204, 204, 204)" fill-opacity="1" points="256.000,768.000 350.048,540.947 256.000,522.240 " />
<polygon stroke="black" stroke-width="1" fill="rgb(204, 204, 204)" fill-opacity="1" points="1024.000,512.000 1024.000,0.000 960.000,0.000 960.000,512.000 " />
<polygon stroke="black" stroke-width="1" fill="rgb(204, 204, 204)" fill-opacity="1" points="629.080,906.920 586.492,843.183 586.492,843.183 629.080,906.920 " />
<polygon stroke="black" stroke-width="1" fill="rgb(204, 204, 204)" fill-opacity="1" points="256.000,768.000 429.779,594.221 350.048,540.947 " />
<polygon stroke="black" stroke-width="1" fill="rgb(204, 204, 204)" fill-opacity="1" points="960.000,512.000 960.000,0.000 896.000,0.000 896.000,512.000 " />
<polygon stroke="black" stroke-width="1" fill="rgb(204, 204, 204)" fill-opacity="1" points="906.920,629.080 949.508,692.817 949.508,692.817 906.920,629.080 " />
<polygon stroke="black" stroke-width="1" fill="rgb(204, 204, 204)" fill-opacity="1" points="256.000,768.000 483.053,673.952 429.779,594.221 " />
<polygon stroke="black" stroke-width="1" fill="rgb(204, 204, 204)" fill-opacity="1" points="896.000,512.000 896.000,0.000 832.000,0.000 832.000,512.000 " />
<polygon stroke="black" stroke-width="1" fill="rgb(204, 204, 204)" fill-opacity="1" points="692.817,949.508 629.080,906.920 629.080,906.920 692.817,949.508 " />
<polygon stroke="black" stroke-width="1" fill="rgb(204, 204, 204)" fill-opacity="1" points="256.000,768.000 501.760,768.000 483.053,673.952 " />
<polygon stroke="black" stroke-width="1" fill="rgb(204, 204, 204)" fill-opacity="1" points="832.000,512.000 832.000,0.000 768.000,0.000 768.000,512.000 " />
<polygon stroke="black" stroke-width="1" fill="rgb(204, 204, 204)" fill-opacity="1" points="843.183,586.492 906.920,629.080 906.920,629.080 843.183,586.492 " />
<polygon stroke="black" stroke-width="1" fill="rgb(204, 204, 204)" fill-opacity="1" points="256.000,768.000 483.053,862.048 501.760,768.000 " />
<polygon stroke="black" stroke-width="1" fill="rgb(204, 204, 204)" fill-opacity="1" points="768.000,512.000 768.000,0.000 704.000,0.000 704.000,512.000 " />
<polygon stroke="black" stroke-width="1" fill="rgb(204, 204, 204)" fill-opacity="1" points="768.000,964.463 692.817,949.508 692.817,949.508 768.000,964.463 " />
<polygon stroke="black" stroke-width="1" fill="rgb(204, 204, 204)" fill-opacity="1" points="256.000,768.000 429.779,941.779 483.053,862.048 " />
<polygon stroke="black" stroke-width="1" fill="rgb(204, 204, 204)" fill-opacity="1" points="704.000,512.000 704.000,0.000 640.000,0.000 640.000,512.000 " />
<polygon stroke="black" stroke-width="1" fill="rgb(204, 204, 204)" fill-opacity="1" points="692.817,586.492 768.000,571.537 768.000,571.537 692.817,586.492 " />
<polygon stroke="black" stroke-width="1" fill="rgb(204, 204, 204)" fill-opacity="1" points="256.000,768.000 350.048,995.053 429.779,941.779 " />
<polygon stroke="black" stroke-width="1" fill="rgb(204, 204, 204)" fill-opacity="1" points="640.000,512.000 640.000,0.000 576.000,0.000 576.000,512.000 " />
<polygon stroke="black" stroke-width="1" fill="rgb(204, 204, 204)" fill-opacity="1" points="768.000,571.537 843.183,586.492 843.183,586.492 768.000,571.537 " />
<polygon stroke="black" stroke-width="1" fill="rgb(204, 204, 204)" fill-opacity="1" points="256.000,768.000 256.000,1013.760 350.048,995.053 " />
<polygon stroke="black" stroke-width="1" fill="rgb(204, 204, 204)" fill-opacity="1" points="576.000,512.000 576.000,0.000 512.000,0.000 512.000,512.000 " />
<polygon stroke="black" stroke-width="1" fill="rgb(204, 204, 204)" fill-opacity="1" points="843.183,949.508 768.000,964.463 768.000,964.463 843.183,949.508 " />
<polygon stroke="black" stroke-width="1" fill="rgb(204, 204, 204)" fill-opacity="1" points="256.000,768.000 161.952,995.053 256.000,1013.760 " />
<polygon stroke="black" stroke-width="1" fill="rgb(204, 204, 204)" fill-opacity="1" points="512.000,512.000 512.000,0.000 448.000,0.000 448.000,512.000 " />
<polygon stroke="black" stroke-width="1" fill="rgb(204, 204, 204)" fill-opacity="1" points="629.080,629.080 692.817,586.492 692.817,586.492 629.080,629.080 " />
<polygon stroke="black" stroke-width="1" fill="rgb(204, 204, 204)" fill-opacity="1" points="256.000,768.000 82.221,941.779 161.952,995.053 " />
<polygon stroke="black" stroke-width="1" fill="rgb(204, 204, 204)" fill-opacity="1" points="448.000,512.000 448.000,0.000 384.000,0.000 384.000,512.000 " />
<polygon stroke="black" stroke-width="1" fill="rgb(204, 204, 204)" fill-opacity="1" points="906.920,906.920 843.183,949.508 843.183,949.508 906.920,906.920 " />
<polygon stroke="black" stroke-width="1" fill="rgb(204, 204, 204)" fill-opacity="1" points="256.000,768.000 28.947,862.048 82.221,941.779 " />
<polygon stroke="black" stroke-width="1" fill="rgb(204, 204, 204)" fill-opacity="1" points="384.000,512.000 384.000,0.000 320.000,0.000 320.000,512.000 " />
<polygon stroke="black" stroke-width="1" fill="rgb(204, 204, 204)" fill-opacity="1" points="586.492,692.817 629.080,629.080 629.080,629.080 586.492,692.817 " />
<polygon stroke="black" stroke-width="1" fill="rgb(204, 204, 204)" fill-opacity="1" points="256.000,768.000 10.240,768.000 28.947,862.048 " />
<polygon stroke="black" stroke-width="1" fill="rgb(204, 204, 204)" fill-opacity="1" points="320.000,512.000 320.000,0.000 256.000,0.000 256.000,512.000 " />
<polygon stroke="black" stroke-width="1" fill="rgb(204, 204, 204)" fill-opacity="1" points="949.508,843.183 906.920,906.920 906.920,906.920 949.508,843.183 " />
<polygon stroke="black" stroke-width="1" fill="rgb(204, 204, 204)" fill-opacity="1" points="256.000,768.000 28.947,673.952 10.240,768.000 " />
<polygon stroke="black" stroke-width="1" fill="rgb(204, 204, 204)" fill-opacity="1" points="256.000,512.000 256.000,0.000 192.000,0.000 192.000,512.000 " />
<polygon stroke="black" stroke-width="1" fill="rgb(204, 204, 204)" fill-opacity="1" points="571.537,768.000 586.492,692.817 586.492,692.817 571.537,768.000 " />
<polygon stroke="black" stroke-width="1" fill="rgb(204, 204, 204)" fill-opacity="1" points="256.000,768.000 82.222,594.221 28.947,673.952 " />
<polygon stroke="black" stroke-width="1" fill="rgb(204, 204, 204)" fill-opacity="1" points="192.000,512.000 192.000,0.000 128.000,0.000 128.000,512.000 " />
<polygon stroke="black" stroke-width="1" fill="rgb(204, 204, 204)" fill-opacity="1" points="964.463,768.000 949.508,843.183 949.508,843.183 964.463,768.000 " />
<polygon stroke="black" stroke-width="1" fill="rgb(204, 204, 204)" fill-opacity="1" points="256.000,768.000 161.952,540.947 82.222,594.221 " />
<polygon stroke="black" stroke-width="1" fill="rgb(204, 204, 204)" fill-opacity="1" points="128.000,512.000 128.000,0.000 64.000,0.000 64.000,512.000 " />
<polygon stroke="black" stroke-width="1" fill="rgb(204, 204, 204)" fill-opacity="1" points="586.492,843.183 571.537,768.000 571.537,768.000 586.492,843.183 " />
<polygon stroke="black" stroke-width="1" fill="rgb(204, 204, 204)" fill-opacity="1" points="256.000,768.000 256.000,522.240 161.952,540.947 " />
<polygon stroke="black" stroke-width="1" fill="rgb(204, 204, 204)" fill-opacity="1" points="64.000,512.000 64.000,0.000 0.000,0.000 0.000,512.000 " />
<polygon stroke="black" stroke-width="1" fill="rgb(204, 204, 204)" fill-opacity="1" points="843.183,586.492 768.000,571.537 768.000,522.240 862.048,540.947 " />
<polygon stroke="black" stroke-width="1" fill="rgb(204, 204, 204)" fill-opacity="1" points="906.920,629.080 843.183,586.492 862.048,540.947 941.779,594.221 " />
<polygon stroke="black" stroke-width="1" fill="rgb(204, 204, 204)" fill-opacity="1" points="949.508,692.817 906.920,629.080 941.779,594.221 995.053,673.952 " />
<polygon stroke="black" stroke-width="1" fill="rgb(204, 204, 204)" fill-opacity="1" points="964.463,768.000 949.508,692.817 995.053,673.952 1013.760,768.000 " />
<polygon stroke="black" stroke-width="1" fill="rgb(204, 204, 204)" fill-opacity="1" points="949.508,843.183 964.463,768.000 1013.760,768.000 995.053,862.048 " />
<polygon stroke="black" stroke-width="1" fill="rgb(204, 204, 204)" fill-opacity="1" points="906.920,906.920 949.508,843.183 995.053,862.048 941.779,941.779 " />
<polygon stroke="black" stroke-width="1" fill="rgb(204, 204, 204)" fill-opacity="1" points="843.183,949.508 906.920,906.920 941.779,941.779 862.048,995.053 " />
<polygon stroke="black" stroke-width="1" fill="rgb(204, 204, 204)" fill-opacity="1" points="768.000,964.463 843.183,949.508 862.048,995.053 768.000,1013.760 " />
<polygon stroke="black" stroke-width="1" fill="rgb(204, 204, 204)" fill-opacity="1" points="692.817,949.508 768.000,964.463 768.000,1013.760 673.952,995.053 " />
<polygon stroke="black" stroke-width="1" fill="rgb(204, 204, 204)" fill-opacity="1" points="629.080,906.920 692.817,949.508 673.952,995.053 594.221,941.779 " />
<polygon stroke="black" stroke-width="1" fill="rgb(204, 204, 204)" fill-opacity="1" points="586.492,843.183 629.080,906.920 594.221,941.779 540.947,862.048 " />
<polygon stroke="black" stroke-width="1" fill="rgb(204, 204, 204)" fill-opacity="1" points="571.537,768.000 586.492,843.183 540.947,862.048 522.240,768.000 " />
<polygon stroke="black" stroke-width="1" fill="rgb(204, 204, 204)" fill-opacity="1" points="586.492,692.817 571.537,768.000 522.240,768.000 540.947,673.952 " />
<polygon stroke="black" stroke-width="1" fill="rgb(204, 204, 204)" fill-opacity="1" points="629.080,629.080 586.492,692.817 540.947,673.952 594.221,594.221 " />
<polygon stroke="black" stroke-width="1" fill="rgb(204, 204, 204)" fill-opacity="1" points="692.817,586.492 629.080,629.080 594.221,594.221 673.952,540.947 " />
<polygon stroke="black" stroke-width="1" fill="rgb(204, 204, 204)" fill-opacity="1" points="768.000,571.537 692.817,586.492 673.952,540.947 768.000,522.240 " />
<polygon stroke="black" stroke-width="1" fill="rgb(204, 204, 204)" fill-opacity="1" points="768.000,768.000 768.000,571.537 843.183,586.492 " />
<polygon stroke="black" stroke-width="1" fill="rgb(204, 204, 204)" fill-opacity="1" points="768.000,768.000 843.183,586.492 906.920,629.080 " />
<polygon stroke="black" stroke-width="1" fill="rgb(204, 204, 204)" fill-opacity="1" points="768.000,768.000 906.920,629.080 949.508,692.817 " />
<polygon stroke="black" stroke-width="1" fill="rgb(204, 204, 204)" fill-opacity="1" points="768.000,768.000 949.508,692.817 964.463,768.000 " />
<polygon stroke="black" stroke-width="1" fill="rgb(204, 204, 204)" fill-opacity="1" points="768.000,768.000 964.463,768.000 949.508,843.183 " />
<polygon stroke="black" stroke-width="1" fill="rgb(204, 204, 204)" fill-opacity="1" points="768.000,768.000 949.508,843.183 906.920,906.920 " />
<polygon stroke="black" stroke-width="1" fill="rgb(204, 204, 204)" fill-opacity="1" points="768.000,768.000 906.920,906.920 843.183,949.508 " />
<polygon stroke="black" stroke-width="1" fill="rgb(204, 204, 204)" fill-opacity="1" points="768.000,768.000 843.183,949.508 768.000,964.463 " />
<polygon stroke="black" stroke-width="1" fill="rgb(204, 204, 204)" fill-opacity="1" points="768.000,768.000 768.000,964.463 692.817,949.508 " />
<polygon stroke="black" stroke-width="1" fill="rgb(204, 204, 204)" fill-opacity="1" points="768.000,768.000 692.817,949.508 629.080,906.920 " />
<polygon stroke="black" stroke-width="1" fill="rgb(204, 204, 204)" fill-opacity="1" points="768.000,768.000 629.080,906.920 586.492,843.183 " />
<polygon stroke="black" stroke-width="1" fill="rgb(204, 204, 204)" fill-opacity="1" points="768.000,768.000 586.492,843.183 571.537,768.000 " />
<polygon stroke="black" stroke-width="1" fill="rgb(204, 204, 204)" fill-opacity="1" points="768.000,768.000 571.537,768.000 586.492,692.817 " />
<polygon stroke="black" stroke-width="1" fill="rgb(204, 204, 204)" fill-opacity="1" points="768.000,768.000 586.492,692.817 629.080,629.080 " />
<polygon stroke="black" stroke-width="1" fill="rgb(204, 204, 204)" fill-opacity="1" points="768.000,768.000 629.080,629.080 692.817,586.492 " />
<polygon stroke="black" stroke-width="1" fill="rgb(204, 204, 204)" fill-opacity="1" points="768.000,768.000 692.817,586.492 768.000,571.537 " />

</svg>
