<?xml version="1.0" standalone="no"?>
<!DOCTYPE svg PUBLIC "-//W3C//DTD SVG 1.1//EN" 
  "http://www.w3.org/Graphics/SVG/1.1/DTD/svg11.dtd">
<svg width="2048" height="1024" viewBox="0 0 2048 1024"
     xmlns="http://www.w3.org/2000/svg" version="1.1">
<desc>Trident.blend, (Blender 2.83.5)</desc>
<polygon stroke="black" stroke-width="1" fill="rgb(204, 204, 204)" fill-opacity="0.25" points="1117.014,423.981 1052.475,386.720 565.435,667.913 565.435,742.435 1052.475,1023.628 1117.014,986.367 " />
<polygon stroke="black" stroke-width="1" fill="rgb(204, 204, 204)" fill-opacity="0.25" points="339.126,321.448 400.467,363.767 400.467,298.151 " />
<polygon stroke="black" stroke-width="1" fill="rgb(204, 204, 204)" fill-opacity="0.25" points="337.639,363.767 337.639,298.151 276.298,340.470 " />
<polygon stroke="black" stroke-width="1" fill="rgb(204, 204, 204)" fill-opacity="0.25" points="502.606,343.657 563.947,385.976 563.947,320.360 " />
<polygon stroke="black" stroke-width="1" fill="rgb(204, 204, 204)" fill-opacity="0.25" points="12.373,667.913 0.744,705.174 118.412,705.174 279.023,649.586 344.117,618.132 428.605,564.744 488.578,471.104 537.814,395.094 499.410,386.719 " />
<polygon stroke="black" stroke-width="1" fill="rgb(204, 204, 204)" fill-opacity="0.25" points="445.181,585.910 430.528,577.204 353.471,625.896 324.899,678.980 324.899,731.367 353.471,784.451 430.528,833.143 445.181,824.437 " />
<polygon stroke="black" stroke-width="1" fill="rgb(204, 204, 204)" fill-opacity="0.25" points="148.956,705.174 275.119,748.839 300.764,728.725 300.764,681.622 275.119,661.508 " />
<polygon stroke="black" stroke-width="1" fill="rgb(204, 204, 204)" fill-opacity="0.25" points="453.663,579.631 488.578,471.104 428.605,564.744 " />
<polygon stroke="black" stroke-width="1" fill="rgb(204, 204, 204)" fill-opacity="0.25" points="453.663,830.716 428.605,845.603 488.578,939.243 " />
<polygon stroke="black" stroke-width="1" fill="rgb(204, 204, 204)" fill-opacity="0.25" points="563.947,423.981 537.814,395.094 488.578,471.104 453.663,579.631 453.663,830.716 488.578,939.243 537.814,1015.254 563.947,986.367 " />
<polygon stroke="black" stroke-width="1" fill="rgb(204, 204, 204)" fill-opacity="0.25" points="344.117,792.215 312.891,734.199 279.023,760.761 " />
<polygon stroke="black" stroke-width="1" fill="rgb(204, 204, 204)" fill-opacity="0.25" points="279.023,649.586 312.891,676.148 344.117,618.132 " />
<polygon stroke="black" stroke-width="1" fill="rgb(204, 204, 204)" fill-opacity="0.25" points="499.410,1023.628 537.814,1015.254 488.578,939.243 428.605,845.603 344.117,792.215 279.023,760.761 118.412,705.174 0.744,705.174 12.373,742.435 " />
<polygon stroke="black" stroke-width="1" fill="rgb(204, 204, 204)" fill-opacity="0.25" points="453.663,579.631 428.605,564.744 430.528,577.204 445.181,585.910 " />
<polygon stroke="black" stroke-width="1" fill="rgb(204, 204, 204)" fill-opacity="0.25" points="428.605,564.744 344.117,618.132 353.471,625.896 430.528,577.204 " />
<polygon stroke="black" stroke-width="1" fill="rgb(204, 204, 204)" fill-opacity="0.25" points="344.117,618.132 312.891,676.148 324.899,678.980 353.471,625.896 " />
<polygon stroke="black" stroke-width="1" fill="rgb(204, 204, 204)" fill-opacity="0.25" points="312.891,676.148 312.891,734.199 324.899,731.367 324.899,678.980 " />
<polygon stroke="black" stroke-width="1" fill="rgb(204, 204, 204)" fill-opacity="0.25" points="312.891,734.199 344.117,792.215 353.471,784.451 324.899,731.367 " />
<polygon stroke="black" stroke-width="1" fill="rgb(204, 204, 204)" fill-opacity="0.25" points="344.117,792.215 428.605,845.603 430.528,833.143 353.471,784.451 " />
<polygon stroke="black" stroke-width="1" fill="rgb(204, 204, 204)" fill-opacity="0.25" points="428.605,845.603 453.663,830.716 445.181,824.437 430.528,833.143 " />
<polygon stroke="black" stroke-width="1" fill="rgb(204, 204, 204)" fill-opacity="0.25" points="453.663,830.716 453.663,579.631 445.181,585.910 445.181,824.437 " />
<polygon stroke="black" stroke-width="1" fill="rgb(204, 204, 204)" fill-opacity="0.25" points="118.412,705.174 279.023,760.761 275.119,748.839 148.956,705.174 " />
<polygon stroke="black" stroke-width="1" fill="rgb(204, 204, 204)" fill-opacity="0.25" points="279.023,760.761 312.891,734.199 300.764,728.725 275.119,748.839 " />
<polygon stroke="black" stroke-width="1" fill="rgb(204, 204, 204)" fill-opacity="0.25" points="312.891,734.199 312.891,676.148 300.764,681.622 300.764,728.725 " />
<polygon stroke="black" stroke-width="1" fill="rgb(204, 204, 204)" fill-opacity="0.25" points="312.891,676.148 279.023,649.586 275.119,661.508 300.764,681.622 " />
<polygon stroke="black" stroke-width="1" fill="rgb(204, 204, 204)" fill-opacity="0.25" points="279.023,649.586 118.412,705.174 148.956,705.174 275.119,661.508 " />
<polygon stroke="black" stroke-width="1" fill="rgb(204, 204, 204)" fill-opacity="0.25" points="1727.072,34.000 1578.854,104.078 1633.933,271.844 1709.987,287.785 " />
<polygon stroke="black" stroke-width="1" fill="rgb(204, 204, 204)" fill-opacity="0.25" points="912.034,346.504 950.292,303.732 950.292,144.166 912.034,101.394 " />
<polygon stroke="black" stroke-width="1" fill="rgb(204, 204, 204)" fill-opacity="0.25" points="0.744,39.617 159.841,61.178 159.842,18.057 " />
<polygon stroke="black" stroke-width="1" fill="rgb(204, 204, 204)" fill-opacity="0.25" points="978.726,288.669 1117.014,265.688 1098.935,223.949 " />
<polygon stroke="black" stroke-width="1" fill="rgb(204, 204, 204)" fill-opacity="0.25" points="900.689,131.618 823.736,142.456 757.564,306.179 900.689,385.976 " />
<polygon stroke="black" stroke-width="1" fill="rgb(204, 204, 204)" fill-opacity="0.25" points="1117.014,182.210 960.149,126.733 978.726,159.229 " />
<polygon stroke="black" stroke-width="1" fill="rgb(204, 204, 204)" fill-opacity="0.25" points="978.726,288.669 978.726,159.229 960.149,126.733 960.149,321.165 " />
<polygon stroke="black" stroke-width="1" fill="rgb(204, 204, 204)" fill-opacity="0.25" points="1361.789,457.908 1348.945,648.514 1516.309,694.156 " />
<polygon stroke="black" stroke-width="1" fill="rgb(204, 204, 204)" fill-opacity="0.25" points="630.531,385.976 630.531,256.537 574.666,281.945 574.666,360.568 " />
<polygon stroke="black" stroke-width="1" fill="rgb(204, 204, 204)" fill-opacity="0.25" points="541.659,20.887 529.921,20.213 529.921,59.022 541.659,60.198 " />
<polygon stroke="black" stroke-width="1" fill="rgb(204, 204, 204)" fill-opacity="0.25" points="179.415,28.885 179.415,50.350 252.257,50.350 252.257,28.885 " />
<polygon stroke="black" stroke-width="1" fill="rgb(204, 204, 204)" fill-opacity="0.25" points="1285.928,648.019 1118.501,693.445 1132.093,883.727 " />
<polygon stroke="black" stroke-width="1" fill="rgb(204, 204, 204)" fill-opacity="0.25" points="1516.309,694.156 1348.945,648.514 1488.124,1023.628 1577.366,1021.456 " />
<polygon stroke="black" stroke-width="1" fill="rgb(204, 204, 204)" fill-opacity="0.25" points="1118.501,693.445 1285.928,648.019 1347.458,320.661 1258.212,318.301 " />
<polygon stroke="black" stroke-width="1" fill="rgb(204, 204, 204)" fill-opacity="0.25" points="1516.309,694.156 1480.684,442.263 1361.789,457.908 " />
<polygon stroke="black" stroke-width="1" fill="rgb(204, 204, 204)" fill-opacity="0.25" points="1480.684,442.263 1442.849,319.501 1361.789,457.908 " />
<polygon stroke="black" stroke-width="1" fill="rgb(204, 204, 204)" fill-opacity="0.25" points="1132.093,883.727 1212.932,1022.159 1250.986,899.567 " />
<polygon stroke="black" stroke-width="1" fill="rgb(204, 204, 204)" fill-opacity="0.25" points="1250.986,899.567 1285.928,648.019 1132.093,883.727 " />
<polygon stroke="black" stroke-width="1" fill="rgb(204, 204, 204)" fill-opacity="0.25" points="179.415,50.350 179.415,28.885 159.842,18.057 159.841,61.178 " />
<polygon stroke="black" stroke-width="1" fill="rgb(204, 204, 204)" fill-opacity="0.25" points="510.347,28.885 510.347,50.350 529.921,59.022 529.921,20.213 " />
<polygon stroke="black" stroke-width="1" fill="rgb(204, 204, 204)" fill-opacity="0.25" points="179.415,28.885 510.347,28.885 529.921,20.213 159.842,18.057 " />
<polygon stroke="black" stroke-width="1" fill="rgb(204, 204, 204)" fill-opacity="0.25" points="510.347,50.350 179.415,50.350 159.841,61.178 529.921,59.022 " />
<polygon stroke="black" stroke-width="1" fill="rgb(204, 204, 204)" fill-opacity="0.25" points="1861.045,583.098 1861.045,258.637 1819.997,180.267 1809.950,581.332 " />
<polygon stroke="black" stroke-width="1" fill="rgb(204, 204, 204)" fill-opacity="0.25" points="1889.823,603.628 1889.823,245.088 1861.045,258.637 1861.045,583.098 " />
<polygon stroke="black" stroke-width="1" fill="rgb(204, 204, 204)" fill-opacity="0.25" points="276.298,364.511 276.298,385.976 310.151,385.976 310.151,364.511 " />
<polygon stroke="black" stroke-width="1" fill="rgb(204, 204, 204)" fill-opacity="0.25" points="1808.463,958.750 1808.463,600.029 1779.693,620.577 1779.693,945.203 " />
<polygon stroke="black" stroke-width="1" fill="rgb(204, 204, 204)" fill-opacity="0.25" points="1971.856,1023.628 2011.908,1014.846 2011.908,822.346 1891.310,848.789 " />
<polygon stroke="black" stroke-width="1" fill="rgb(204, 204, 204)" fill-opacity="0.25" points="310.151,364.511 310.151,385.976 474.061,385.494 474.061,364.992 " />
<polygon stroke="black" stroke-width="1" fill="rgb(204, 204, 204)" fill-opacity="0.25" points="1779.693,945.203 1779.693,620.577 1728.559,622.256 1738.659,1023.628 " />
<polygon stroke="black" stroke-width="1" fill="rgb(204, 204, 204)" fill-opacity="0.25" points="1891.310,848.789 2011.908,822.346 1896.159,582.680 " />
<polygon stroke="black" stroke-width="1" fill="rgb(204, 204, 204)" fill-opacity="0.25" points="1728.559,622.256 1779.693,620.577 1806.866,179.871 " />
<polygon stroke="black" stroke-width="1" fill="rgb(204, 204, 204)" fill-opacity="0.25" points="1861.045,583.098 1809.950,581.332 1888.196,1023.628 " />
<polygon stroke="black" stroke-width="1" fill="rgb(204, 204, 204)" fill-opacity="0.25" points="1454.604,61.178 1454.604,39.713 902.177,50.446 " />
<polygon stroke="black" stroke-width="1" fill="rgb(204, 204, 204)" fill-opacity="0.25" points="950.292,303.732 912.034,346.504 902.177,385.976 960.149,321.165 " />
<polygon stroke="black" stroke-width="1" fill="rgb(204, 204, 204)" fill-opacity="0.25" points="912.034,346.504 912.034,101.394 902.177,61.922 902.177,385.976 " />
<polygon stroke="black" stroke-width="1" fill="rgb(204, 204, 204)" fill-opacity="0.25" points="950.292,144.166 950.292,303.732 960.149,321.165 960.149,126.733 " />
<polygon stroke="black" stroke-width="1" fill="rgb(204, 204, 204)" fill-opacity="0.25" points="912.034,101.394 950.292,144.166 960.149,126.733 902.177,61.922 " />
<polygon stroke="black" stroke-width="1" fill="rgb(204, 204, 204)" fill-opacity="0.25" points="1117.014,265.688 1117.014,182.210 1098.935,223.949 " />
<polygon stroke="black" stroke-width="1" fill="rgb(204, 204, 204)" fill-opacity="0.25" points="2016.508,209.327 1958.705,225.956 1958.705,581.936 2016.508,565.306 " />
<polygon stroke="black" stroke-width="1" fill="rgb(204, 204, 204)" fill-opacity="0.25" points="0.744,182.210 0.744,265.687 228.483,385.976 228.483,61.922 " />
<polygon stroke="black" stroke-width="1" fill="rgb(204, 204, 204)" fill-opacity="0.25" points="1636.044,294.905 1641.765,276.146 1633.933,271.844 1626.686,295.604 " />
<polygon stroke="black" stroke-width="1" fill="rgb(204, 204, 204)" fill-opacity="0.25" points="1700.630,288.484 1694.909,307.242 1702.741,311.544 1709.987,287.785 " />
<polygon stroke="black" stroke-width="1" fill="rgb(204, 204, 204)" fill-opacity="0.25" points="1641.765,276.146 1700.630,288.484 1709.987,287.785 1633.933,271.844 " />
<polygon stroke="black" stroke-width="1" fill="rgb(204, 204, 204)" fill-opacity="0.25" points="1694.909,307.242 1636.044,294.905 1626.686,295.604 1702.741,311.544 " />
<polygon stroke="black" stroke-width="1" fill="rgb(204, 204, 204)" fill-opacity="0.25" points="648.925,385.976 688.683,379.142 673.475,286.279 632.018,286.484 " />
<polygon stroke="black" stroke-width="1" fill="rgb(204, 204, 204)" fill-opacity="0.25" points="690.170,385.976 756.077,385.976 756.077,24.162 690.170,24.162 " />
<polygon stroke="black" stroke-width="1" fill="rgb(204, 204, 204)" fill-opacity="0.25" points="1700.630,288.484 1641.765,276.146 1668.207,631.181 1727.072,643.519 " />
<polygon stroke="black" stroke-width="1" fill="rgb(204, 204, 204)" fill-opacity="0.25" points="1891.311,581.936 1957.218,581.936 1957.217,212.220 1891.310,212.220 " />
<polygon stroke="black" stroke-width="1" fill="rgb(204, 204, 204)" fill-opacity="0.25" points="1673.039,649.152 1677.040,636.032 1668.207,631.181 1662.487,649.940 " />
<polygon stroke="black" stroke-width="1" fill="rgb(204, 204, 204)" fill-opacity="0.25" points="1716.520,644.307 1712.519,657.426 1721.351,662.278 1727.072,643.519 " />
<polygon stroke="black" stroke-width="1" fill="rgb(204, 204, 204)" fill-opacity="0.25" points="1677.040,636.032 1716.520,644.307 1727.072,643.519 1668.207,631.181 " />
<polygon stroke="black" stroke-width="1" fill="rgb(204, 204, 204)" fill-opacity="0.25" points="1712.519,657.426 1673.039,649.152 1662.487,649.940 1721.351,662.278 " />
<polygon stroke="black" stroke-width="1" fill="rgb(204, 204, 204)" fill-opacity="0.25" points="1698.028,736.560 1656.547,734.845 1669.630,1010.387 1703.509,1010.509 " />
<polygon stroke="black" stroke-width="1" fill="rgb(204, 204, 204)" fill-opacity="0.25" points="757.564,0.372 757.564,23.419 954.417,23.419 954.417,0.372 " />
<polygon stroke="black" stroke-width="1" fill="rgb(204, 204, 204)" fill-opacity="0.25" points="1716.520,644.307 1677.040,636.032 1656.547,734.845 1698.028,736.560 " />
<polygon stroke="black" stroke-width="1" fill="rgb(204, 204, 204)" fill-opacity="0.25" points="274.811,286.474 229.970,297.150 274.811,385.976 " />
<polygon stroke="black" stroke-width="1" fill="rgb(204, 204, 204)" fill-opacity="0.25" points="1703.509,1010.509 1669.630,1010.387 1699.508,1023.628 " />
<polygon stroke="black" stroke-width="1" fill="rgb(204, 204, 204)" fill-opacity="0.25" points="632.018,286.484 673.475,286.279 688.683,12.716 654.881,11.605 " />
<polygon stroke="black" stroke-width="1" fill="rgb(204, 204, 204)" fill-opacity="0.25" points="954.417,0.372 954.417,23.419 1517.967,23.419 1517.967,0.372 " />
<polygon stroke="black" stroke-width="1" fill="rgb(204, 204, 204)" fill-opacity="0.25" points="1347.458,1023.628 1250.986,899.567 1212.932,1022.159 " />
<polygon stroke="black" stroke-width="1" fill="rgb(204, 204, 204)" fill-opacity="0.25" points="978.726,288.669 960.149,321.165 1117.014,265.688 " />
<polygon stroke="black" stroke-width="1" fill="rgb(204, 204, 204)" fill-opacity="0.25" points="1442.849,319.501 1480.684,442.263 1577.366,318.313 " />
<polygon stroke="black" stroke-width="1" fill="rgb(204, 204, 204)" fill-opacity="0.25" points="1098.935,223.949 1117.014,182.210 978.726,159.229 " />
<polygon stroke="black" stroke-width="1" fill="rgb(204, 204, 204)" fill-opacity="0.25" points="1727.072,34.000 1578.854,104.078 1633.933,271.844 1709.987,287.785 " />
<polygon stroke="black" stroke-width="1" fill="rgb(204, 204, 204)" fill-opacity="0.25" points="912.034,346.504 950.292,303.732 950.292,144.166 912.034,101.394 " />
<polygon stroke="black" stroke-width="1" fill="rgb(204, 204, 204)" fill-opacity="0.25" points="0.744,39.617 159.841,61.178 159.842,18.057 " />
<polygon stroke="black" stroke-width="1" fill="rgb(204, 204, 204)" fill-opacity="0.25" points="978.726,288.669 1117.014,265.688 1098.935,223.949 " />
<polygon stroke="black" stroke-width="1" fill="rgb(204, 204, 204)" fill-opacity="0.25" points="900.689,131.618 823.736,142.456 757.564,306.179 900.689,385.976 " />
<polygon stroke="black" stroke-width="1" fill="rgb(204, 204, 204)" fill-opacity="0.25" points="1117.014,182.210 960.149,126.733 978.726,159.229 " />
<polygon stroke="black" stroke-width="1" fill="rgb(204, 204, 204)" fill-opacity="0.25" points="978.726,288.669 978.726,159.229 960.149,126.733 960.149,321.165 " />
<polygon stroke="black" stroke-width="1" fill="rgb(204, 204, 204)" fill-opacity="0.25" points="1361.789,457.908 1348.945,648.514 1516.309,694.156 " />
<polygon stroke="black" stroke-width="1" fill="rgb(204, 204, 204)" fill-opacity="0.25" points="630.531,385.976 630.531,256.537 574.666,281.945 574.666,360.568 " />
<polygon stroke="black" stroke-width="1" fill="rgb(204, 204, 204)" fill-opacity="0.25" points="541.659,20.887 529.921,20.213 529.921,59.022 541.659,60.198 " />
<polygon stroke="black" stroke-width="1" fill="rgb(204, 204, 204)" fill-opacity="0.25" points="179.415,28.885 179.415,50.350 252.257,50.350 252.257,28.885 " />
<polygon stroke="black" stroke-width="1" fill="rgb(204, 204, 204)" fill-opacity="0.25" points="1285.928,648.019 1118.501,693.445 1132.093,883.727 " />
<polygon stroke="black" stroke-width="1" fill="rgb(204, 204, 204)" fill-opacity="0.25" points="1516.309,694.156 1348.945,648.514 1488.124,1023.628 1577.366,1021.456 " />
<polygon stroke="black" stroke-width="1" fill="rgb(204, 204, 204)" fill-opacity="0.25" points="1118.501,693.445 1285.928,648.019 1347.458,320.661 1258.212,318.301 " />
<polygon stroke="black" stroke-width="1" fill="rgb(204, 204, 204)" fill-opacity="0.25" points="1516.309,694.156 1480.684,442.263 1361.789,457.908 " />
<polygon stroke="black" stroke-width="1" fill="rgb(204, 204, 204)" fill-opacity="0.25" points="1480.684,442.263 1442.849,319.501 1361.789,457.908 " />
<polygon stroke="black" stroke-width="1" fill="rgb(204, 204, 204)" fill-opacity="0.25" points="1132.093,883.727 1212.932,1022.159 1250.986,899.567 " />
<polygon stroke="black" stroke-width="1" fill="rgb(204, 204, 204)" fill-opacity="0.25" points="1250.986,899.567 1285.928,648.019 1132.093,883.727 " />
<polygon stroke="black" stroke-width="1" fill="rgb(204, 204, 204)" fill-opacity="0.25" points="179.415,50.350 179.415,28.885 159.842,18.057 159.841,61.178 " />
<polygon stroke="black" stroke-width="1" fill="rgb(204, 204, 204)" fill-opacity="0.25" points="510.347,28.885 510.347,50.350 529.921,59.022 529.921,20.213 " />
<polygon stroke="black" stroke-width="1" fill="rgb(204, 204, 204)" fill-opacity="0.25" points="179.415,28.885 510.347,28.885 529.921,20.213 159.842,18.057 " />
<polygon stroke="black" stroke-width="1" fill="rgb(204, 204, 204)" fill-opacity="0.25" points="510.347,50.350 179.415,50.350 159.841,61.178 529.921,59.022 " />
<polygon stroke="black" stroke-width="1" fill="rgb(204, 204, 204)" fill-opacity="0.25" points="1861.045,583.098 1861.045,258.637 1819.997,180.267 1809.950,581.332 " />
<polygon stroke="black" stroke-width="1" fill="rgb(204, 204, 204)" fill-opacity="0.25" points="1889.823,603.628 1889.823,245.088 1861.045,258.637 1861.045,583.098 " />
<polygon stroke="black" stroke-width="1" fill="rgb(204, 204, 204)" fill-opacity="0.25" points="276.298,364.511 276.298,385.976 310.151,385.976 310.151,364.511 " />
<polygon stroke="black" stroke-width="1" fill="rgb(204, 204, 204)" fill-opacity="0.25" points="1808.463,958.750 1808.463,600.029 1779.693,620.577 1779.693,945.203 " />
<polygon stroke="black" stroke-width="1" fill="rgb(204, 204, 204)" fill-opacity="0.25" points="1971.856,1023.628 2011.908,1014.846 2011.908,822.346 1891.310,848.789 " />
<polygon stroke="black" stroke-width="1" fill="rgb(204, 204, 204)" fill-opacity="0.25" points="310.151,364.511 310.151,385.976 474.061,385.494 474.061,364.992 " />
<polygon stroke="black" stroke-width="1" fill="rgb(204, 204, 204)" fill-opacity="0.25" points="1779.693,945.203 1779.693,620.577 1728.559,622.256 1738.659,1023.628 " />
<polygon stroke="black" stroke-width="1" fill="rgb(204, 204, 204)" fill-opacity="0.25" points="1891.310,848.789 2011.908,822.346 1896.159,582.680 " />
<polygon stroke="black" stroke-width="1" fill="rgb(204, 204, 204)" fill-opacity="0.25" points="1728.559,622.256 1779.693,620.577 1806.866,179.871 " />
<polygon stroke="black" stroke-width="1" fill="rgb(204, 204, 204)" fill-opacity="0.25" points="1861.045,583.098 1809.950,581.332 1888.196,1023.628 " />
<polygon stroke="black" stroke-width="1" fill="rgb(204, 204, 204)" fill-opacity="0.25" points="1454.604,61.178 1454.604,39.713 902.177,50.446 " />
<polygon stroke="black" stroke-width="1" fill="rgb(204, 204, 204)" fill-opacity="0.25" points="950.292,303.732 912.034,346.504 902.177,385.976 960.149,321.165 " />
<polygon stroke="black" stroke-width="1" fill="rgb(204, 204, 204)" fill-opacity="0.25" points="912.034,346.504 912.034,101.394 902.177,61.922 902.177,385.976 " />
<polygon stroke="black" stroke-width="1" fill="rgb(204, 204, 204)" fill-opacity="0.25" points="950.292,144.166 950.292,303.732 960.149,321.165 960.149,126.733 " />
<polygon stroke="black" stroke-width="1" fill="rgb(204, 204, 204)" fill-opacity="0.25" points="912.034,101.394 950.292,144.166 960.149,126.733 902.177,61.922 " />
<polygon stroke="black" stroke-width="1" fill="rgb(204, 204, 204)" fill-opacity="0.25" points="1117.014,265.688 1117.014,182.210 1098.935,223.949 " />
<polygon stroke="black" stroke-width="1" fill="rgb(204, 204, 204)" fill-opacity="0.25" points="2016.508,209.327 1958.705,225.956 1958.705,581.936 2016.508,565.306 " />
<polygon stroke="black" stroke-width="1" fill="rgb(204, 204, 204)" fill-opacity="0.25" points="0.744,182.210 0.744,265.687 228.483,385.976 228.483,61.922 " />
<polygon stroke="black" stroke-width="1" fill="rgb(204, 204, 204)" fill-opacity="0.25" points="1636.044,294.905 1641.765,276.146 1633.933,271.844 1626.686,295.604 " />
<polygon stroke="black" stroke-width="1" fill="rgb(204, 204, 204)" fill-opacity="0.25" points="1700.630,288.484 1694.909,307.242 1702.741,311.544 1709.987,287.785 " />
<polygon stroke="black" stroke-width="1" fill="rgb(204, 204, 204)" fill-opacity="0.25" points="1641.765,276.146 1700.630,288.484 1709.987,287.785 1633.933,271.844 " />
<polygon stroke="black" stroke-width="1" fill="rgb(204, 204, 204)" fill-opacity="0.25" points="1694.909,307.242 1636.044,294.905 1626.686,295.604 1702.741,311.544 " />
<polygon stroke="black" stroke-width="1" fill="rgb(204, 204, 204)" fill-opacity="0.25" points="648.925,385.976 688.683,379.142 673.475,286.279 632.018,286.484 " />
<polygon stroke="black" stroke-width="1" fill="rgb(204, 204, 204)" fill-opacity="0.25" points="690.170,385.976 756.077,385.976 756.077,24.162 690.170,24.162 " />
<polygon stroke="black" stroke-width="1" fill="rgb(204, 204, 204)" fill-opacity="0.25" points="1700.630,288.484 1641.765,276.146 1668.207,631.181 1727.072,643.519 " />
<polygon stroke="black" stroke-width="1" fill="rgb(204, 204, 204)" fill-opacity="0.25" points="1891.311,581.936 1957.218,581.936 1957.217,212.220 1891.310,212.220 " />
<polygon stroke="black" stroke-width="1" fill="rgb(204, 204, 204)" fill-opacity="0.25" points="1673.039,649.152 1677.040,636.032 1668.207,631.181 1662.487,649.940 " />
<polygon stroke="black" stroke-width="1" fill="rgb(204, 204, 204)" fill-opacity="0.25" points="1716.520,644.307 1712.519,657.426 1721.351,662.278 1727.072,643.519 " />
<polygon stroke="black" stroke-width="1" fill="rgb(204, 204, 204)" fill-opacity="0.25" points="1677.040,636.032 1716.520,644.307 1727.072,643.519 1668.207,631.181 " />
<polygon stroke="black" stroke-width="1" fill="rgb(204, 204, 204)" fill-opacity="0.25" points="1712.519,657.426 1673.039,649.152 1662.487,649.940 1721.351,662.278 " />
<polygon stroke="black" stroke-width="1" fill="rgb(204, 204, 204)" fill-opacity="0.25" points="1698.028,736.560 1656.547,734.845 1669.630,1010.387 1703.509,1010.509 " />
<polygon stroke="black" stroke-width="1" fill="rgb(204, 204, 204)" fill-opacity="0.25" points="757.564,0.372 757.564,23.419 954.417,23.419 954.417,0.372 " />
<polygon stroke="black" stroke-width="1" fill="rgb(204, 204, 204)" fill-opacity="0.25" points="1716.520,644.307 1677.040,636.032 1656.547,734.845 1698.028,736.560 " />
<polygon stroke="black" stroke-width="1" fill="rgb(204, 204, 204)" fill-opacity="0.25" points="274.811,286.474 229.970,297.150 274.811,385.976 " />
<polygon stroke="black" stroke-width="1" fill="rgb(204, 204, 204)" fill-opacity="0.25" points="1703.509,1010.509 1669.630,1010.387 1699.508,1023.628 " />
<polygon stroke="black" stroke-width="1" fill="rgb(204, 204, 204)" fill-opacity="0.25" points="632.018,286.484 673.475,286.279 688.683,12.716 654.881,11.605 " />
<polygon stroke="black" stroke-width="1" fill="rgb(204, 204, 204)" fill-opacity="0.25" points="954.417,0.372 954.417,23.419 1517.967,23.419 1517.967,0.372 " />
<polygon stroke="black" stroke-width="1" fill="rgb(204, 204, 204)" fill-opacity="0.25" points="1347.458,1023.628 1250.986,899.567 1212.932,1022.159 " />
<polygon stroke="black" stroke-width="1" fill="rgb(204, 204, 204)" fill-opacity="0.25" points="978.726,288.669 960.149,321.165 1117.014,265.688 " />
<polygon stroke="black" stroke-width="1" fill="rgb(204, 204, 204)" fill-opacity="0.25" points="1442.849,319.501 1480.684,442.263 1577.366,318.313 " />
<polygon stroke="black" stroke-width="1" fill="rgb(204, 204, 204)" fill-opacity="0.25" points="1098.935,223.949 1117.014,182.210 978.726,159.229 " />
<polygon stroke="black" stroke-width="1" fill="rgb(204, 204, 204)" fill-opacity="0.25" points="1727.072,34.000 1578.854,104.078 1633.933,271.844 1709.987,287.785 " />
<polygon stroke="black" stroke-width="1" fill="rgb(204, 204, 204)" fill-opacity="0.25" points="912.034,346.504 950.292,303.732 950.292,144.166 912.034,101.394 " />
<polygon stroke="black" stroke-width="1" fill="rgb(204, 204, 204)" fill-opacity="0.25" points="0.744,39.617 159.841,61.178 159.842,18.057 " />
<polygon stroke="black" stroke-width="1" fill="rgb(204, 204, 204)" fill-opacity="0.25" points="978.726,288.669 1117.014,265.688 1098.935,223.949 " />
<polygon stroke="black" stroke-width="1" fill="rgb(204, 204, 204)" fill-opacity="0.25" points="900.689,131.618 823.736,142.456 757.564,306.179 900.689,385.976 " />
<polygon stroke="black" stroke-width="1" fill="rgb(204, 204, 204)" fill-opacity="0.25" points="1117.014,182.210 960.149,126.733 978.726,159.229 " />
<polygon stroke="black" stroke-width="1" fill="rgb(204, 204, 204)" fill-opacity="0.25" points="978.726,288.669 978.726,159.229 960.149,126.733 960.149,321.165 " />
<polygon stroke="black" stroke-width="1" fill="rgb(204, 204, 204)" fill-opacity="0.25" points="1361.789,457.908 1348.945,648.514 1516.309,694.156 " />
<polygon stroke="black" stroke-width="1" fill="rgb(204, 204, 204)" fill-opacity="0.25" points="630.531,385.976 630.531,256.537 574.666,281.945 574.666,360.568 " />
<polygon stroke="black" stroke-width="1" fill="rgb(204, 204, 204)" fill-opacity="0.25" points="541.659,20.887 529.921,20.213 529.921,59.022 541.659,60.198 " />
<polygon stroke="black" stroke-width="1" fill="rgb(204, 204, 204)" fill-opacity="0.25" points="179.415,28.885 179.415,50.350 252.257,50.350 252.257,28.885 " />
<polygon stroke="black" stroke-width="1" fill="rgb(204, 204, 204)" fill-opacity="0.25" points="1285.928,648.019 1118.501,693.445 1132.093,883.727 " />
<polygon stroke="black" stroke-width="1" fill="rgb(204, 204, 204)" fill-opacity="0.25" points="1516.309,694.156 1348.945,648.514 1488.124,1023.628 1577.366,1021.456 " />
<polygon stroke="black" stroke-width="1" fill="rgb(204, 204, 204)" fill-opacity="0.25" points="1118.501,693.445 1285.928,648.019 1347.458,320.661 1258.212,318.301 " />
<polygon stroke="black" stroke-width="1" fill="rgb(204, 204, 204)" fill-opacity="0.25" points="1516.309,694.156 1480.684,442.263 1361.789,457.908 " />
<polygon stroke="black" stroke-width="1" fill="rgb(204, 204, 204)" fill-opacity="0.25" points="1480.684,442.263 1442.849,319.501 1361.789,457.908 " />
<polygon stroke="black" stroke-width="1" fill="rgb(204, 204, 204)" fill-opacity="0.25" points="1132.093,883.727 1212.932,1022.159 1250.986,899.567 " />
<polygon stroke="black" stroke-width="1" fill="rgb(204, 204, 204)" fill-opacity="0.25" points="1250.986,899.567 1285.928,648.019 1132.093,883.727 " />
<polygon stroke="black" stroke-width="1" fill="rgb(204, 204, 204)" fill-opacity="0.25" points="179.415,50.350 179.415,28.885 159.842,18.057 159.841,61.178 " />
<polygon stroke="black" stroke-width="1" fill="rgb(204, 204, 204)" fill-opacity="0.25" points="510.347,28.885 510.347,50.350 529.921,59.022 529.921,20.213 " />
<polygon stroke="black" stroke-width="1" fill="rgb(204, 204, 204)" fill-opacity="0.25" points="179.415,28.885 510.347,28.885 529.921,20.213 159.842,18.057 " />
<polygon stroke="black" stroke-width="1" fill="rgb(204, 204, 204)" fill-opacity="0.25" points="510.347,50.350 179.415,50.350 159.841,61.178 529.921,59.022 " />
<polygon stroke="black" stroke-width="1" fill="rgb(204, 204, 204)" fill-opacity="0.25" points="1861.045,583.098 1861.045,258.637 1819.997,180.267 1809.950,581.332 " />
<polygon stroke="black" stroke-width="1" fill="rgb(204, 204, 204)" fill-opacity="0.25" points="1889.823,603.628 1889.823,245.088 1861.045,258.637 1861.045,583.098 " />
<polygon stroke="black" stroke-width="1" fill="rgb(204, 204, 204)" fill-opacity="0.25" points="276.298,364.511 276.298,385.976 310.151,385.976 310.151,364.511 " />
<polygon stroke="black" stroke-width="1" fill="rgb(204, 204, 204)" fill-opacity="0.25" points="1808.463,958.750 1808.463,600.029 1779.693,620.577 1779.693,945.203 " />
<polygon stroke="black" stroke-width="1" fill="rgb(204, 204, 204)" fill-opacity="0.25" points="1971.856,1023.628 2011.908,1014.846 2011.908,822.346 1891.310,848.789 " />
<polygon stroke="black" stroke-width="1" fill="rgb(204, 204, 204)" fill-opacity="0.25" points="310.151,364.511 310.151,385.976 474.061,385.494 474.061,364.992 " />
<polygon stroke="black" stroke-width="1" fill="rgb(204, 204, 204)" fill-opacity="0.25" points="1779.693,945.203 1779.693,620.577 1728.559,622.256 1738.659,1023.628 " />
<polygon stroke="black" stroke-width="1" fill="rgb(204, 204, 204)" fill-opacity="0.25" points="1891.310,848.789 2011.908,822.346 1896.159,582.680 " />
<polygon stroke="black" stroke-width="1" fill="rgb(204, 204, 204)" fill-opacity="0.25" points="1728.559,622.256 1779.693,620.577 1806.866,179.871 " />
<polygon stroke="black" stroke-width="1" fill="rgb(204, 204, 204)" fill-opacity="0.25" points="1861.045,583.098 1809.950,581.332 1888.196,1023.628 " />
<polygon stroke="black" stroke-width="1" fill="rgb(204, 204, 204)" fill-opacity="0.25" points="1454.604,61.178 1454.604,39.713 902.177,50.446 " />
<polygon stroke="black" stroke-width="1" fill="rgb(204, 204, 204)" fill-opacity="0.25" points="950.292,303.732 912.034,346.504 902.177,385.976 960.149,321.165 " />
<polygon stroke="black" stroke-width="1" fill="rgb(204, 204, 204)" fill-opacity="0.25" points="912.034,346.504 912.034,101.394 902.177,61.922 902.177,385.976 " />
<polygon stroke="black" stroke-width="1" fill="rgb(204, 204, 204)" fill-opacity="0.25" points="950.292,144.166 950.292,303.732 960.149,321.165 960.149,126.733 " />
<polygon stroke="black" stroke-width="1" fill="rgb(204, 204, 204)" fill-opacity="0.25" points="912.034,101.394 950.292,144.166 960.149,126.733 902.177,61.922 " />
<polygon stroke="black" stroke-width="1" fill="rgb(204, 204, 204)" fill-opacity="0.25" points="1117.014,265.688 1117.014,182.210 1098.935,223.949 " />
<polygon stroke="black" stroke-width="1" fill="rgb(204, 204, 204)" fill-opacity="0.25" points="2016.508,209.327 1958.705,225.956 1958.705,581.936 2016.508,565.306 " />
<polygon stroke="black" stroke-width="1" fill="rgb(204, 204, 204)" fill-opacity="0.25" points="0.744,182.210 0.744,265.687 228.483,385.976 228.483,61.922 " />
<polygon stroke="black" stroke-width="1" fill="rgb(204, 204, 204)" fill-opacity="0.25" points="1636.044,294.905 1641.765,276.146 1633.933,271.844 1626.686,295.604 " />
<polygon stroke="black" stroke-width="1" fill="rgb(204, 204, 204)" fill-opacity="0.25" points="1700.630,288.484 1694.909,307.242 1702.741,311.544 1709.987,287.785 " />
<polygon stroke="black" stroke-width="1" fill="rgb(204, 204, 204)" fill-opacity="0.25" points="1641.765,276.146 1700.630,288.484 1709.987,287.785 1633.933,271.844 " />
<polygon stroke="black" stroke-width="1" fill="rgb(204, 204, 204)" fill-opacity="0.25" points="1694.909,307.242 1636.044,294.905 1626.686,295.604 1702.741,311.544 " />
<polygon stroke="black" stroke-width="1" fill="rgb(204, 204, 204)" fill-opacity="0.25" points="648.925,385.976 688.683,379.142 673.475,286.279 632.018,286.484 " />
<polygon stroke="black" stroke-width="1" fill="rgb(204, 204, 204)" fill-opacity="0.25" points="690.170,385.976 756.077,385.976 756.077,24.162 690.170,24.162 " />
<polygon stroke="black" stroke-width="1" fill="rgb(204, 204, 204)" fill-opacity="0.25" points="1700.630,288.484 1641.765,276.146 1668.207,631.181 1727.072,643.519 " />
<polygon stroke="black" stroke-width="1" fill="rgb(204, 204, 204)" fill-opacity="0.25" points="1891.311,581.936 1957.218,581.936 1957.217,212.220 1891.310,212.220 " />
<polygon stroke="black" stroke-width="1" fill="rgb(204, 204, 204)" fill-opacity="0.25" points="1673.039,649.152 1677.040,636.032 1668.207,631.181 1662.487,649.940 " />
<polygon stroke="black" stroke-width="1" fill="rgb(204, 204, 204)" fill-opacity="0.25" points="1716.520,644.307 1712.519,657.426 1721.351,662.278 1727.072,643.519 " />
<polygon stroke="black" stroke-width="1" fill="rgb(204, 204, 204)" fill-opacity="0.25" points="1677.040,636.032 1716.520,644.307 1727.072,643.519 1668.207,631.181 " />
<polygon stroke="black" stroke-width="1" fill="rgb(204, 204, 204)" fill-opacity="0.25" points="1712.519,657.426 1673.039,649.152 1662.487,649.940 1721.351,662.278 " />
<polygon stroke="black" stroke-width="1" fill="rgb(204, 204, 204)" fill-opacity="0.25" points="1698.028,736.560 1656.547,734.845 1669.630,1010.387 1703.509,1010.509 " />
<polygon stroke="black" stroke-width="1" fill="rgb(204, 204, 204)" fill-opacity="0.25" points="757.564,0.372 757.564,23.419 954.417,23.419 954.417,0.372 " />
<polygon stroke="black" stroke-width="1" fill="rgb(204, 204, 204)" fill-opacity="0.25" points="1716.520,644.307 1677.040,636.032 1656.547,734.845 1698.028,736.560 " />
<polygon stroke="black" stroke-width="1" fill="rgb(204, 204, 204)" fill-opacity="0.25" points="274.811,286.474 229.970,297.150 274.811,385.976 " />
<polygon stroke="black" stroke-width="1" fill="rgb(204, 204, 204)" fill-opacity="0.25" points="1703.509,1010.509 1669.630,1010.387 1699.508,1023.628 " />
<polygon stroke="black" stroke-width="1" fill="rgb(204, 204, 204)" fill-opacity="0.25" points="632.018,286.484 673.475,286.279 688.683,12.716 654.881,11.605 " />
<polygon stroke="black" stroke-width="1" fill="rgb(204, 204, 204)" fill-opacity="0.25" points="954.417,0.372 954.417,23.419 1517.967,23.419 1517.967,0.372 " />
<polygon stroke="black" stroke-width="1" fill="rgb(204, 204, 204)" fill-opacity="0.25" points="1347.458,1023.628 1250.986,899.567 1212.932,1022.159 " />
<polygon stroke="black" stroke-width="1" fill="rgb(204, 204, 204)" fill-opacity="0.25" points="978.726,288.669 960.149,321.165 1117.014,265.688 " />
<polygon stroke="black" stroke-width="1" fill="rgb(204, 204, 204)" fill-opacity="0.25" points="1442.849,319.501 1480.684,442.263 1577.366,318.313 " />
<polygon stroke="black" stroke-width="1" fill="rgb(204, 204, 204)" fill-opacity="0.25" points="1098.935,223.949 1117.014,182.210 978.726,159.229 " />

</svg>
