<?xml version="1.0" standalone="no"?>
<!DOCTYPE svg PUBLIC "-//W3C//DTD SVG 1.1//EN" 
  "http://www.w3.org/Graphics/SVG/1.1/DTD/svg11.dtd">
<svg width="2048" height="1024" viewBox="0 0 2048 1024"
     xmlns="http://www.w3.org/2000/svg" version="1.1">
<desc>Trident.blend, (Blender 2.83.5)</desc>
<polygon stroke="black" stroke-width="1" fill="rgb(204, 204, 204)" fill-opacity="0.25" points="1117.014,423.981 1052.475,386.720 565.435,667.913 565.435,742.435 1052.475,1023.628 1117.014,986.367 " />
<polygon stroke="black" stroke-width="1" fill="rgb(204, 204, 204)" fill-opacity="0.25" points="339.126,321.448 400.467,363.767 400.467,298.151 " />
<polygon stroke="black" stroke-width="1" fill="rgb(204, 204, 204)" fill-opacity="0.25" points="337.639,363.767 337.639,298.151 276.298,340.470 " />
<polygon stroke="black" stroke-width="1" fill="rgb(204, 204, 204)" fill-opacity="0.25" points="502.606,343.657 563.947,385.976 563.947,320.360 " />
<polygon stroke="black" stroke-width="1" fill="rgb(204, 204, 204)" fill-opacity="0.25" points="12.373,667.913 0.744,705.174 118.412,705.174 279.023,649.586 344.117,618.132 428.605,564.744 488.578,471.104 537.814,395.094 499.410,386.719 " />
<polygon stroke="black" stroke-width="1" fill="rgb(204, 204, 204)" fill-opacity="0.25" points="445.181,585.910 430.528,577.204 353.471,625.896 324.899,678.980 324.899,731.367 353.471,784.451 430.528,833.143 445.181,824.437 " />
<polygon stroke="black" stroke-width="1" fill="rgb(204, 204, 204)" fill-opacity="0.25" points="148.956,705.174 275.119,748.839 300.764,728.725 300.764,681.622 275.119,661.508 " />
<polygon stroke="black" stroke-width="1" fill="rgb(204, 204, 204)" fill-opacity="0.25" points="453.663,579.631 488.578,471.104 428.605,564.744 " />
<polygon stroke="black" stroke-width="1" fill="rgb(204, 204, 204)" fill-opacity="0.25" points="453.663,830.716 428.605,845.603 488.578,939.243 " />
<polygon stroke="black" stroke-width="1" fill="rgb(204, 204, 204)" fill-opacity="0.25" points="563.947,423.981 537.814,395.094 488.578,471.104 453.663,579.631 453.663,830.716 488.578,939.243 537.814,1015.254 563.947,986.367 " />
<polygon stroke="black" stroke-width="1" fill="rgb(204, 204, 204)" fill-opacity="0.25" points="344.117,792.215 312.891,734.199 279.023,760.761 " />
<polygon stroke="black" stroke-width="1" fill="rgb(204, 204, 204)" fill-opacity="0.25" points="279.023,649.586 312.891,676.148 344.117,618.132 " />
<polygon stroke="black" stroke-width="1" fill="rgb(204, 204, 204)" fill-opacity="0.25" points="499.410,1023.628 537.814,1015.254 488.578,939.243 428.605,845.603 344.117,792.215 279.023,760.761 118.412,705.174 0.744,705.174 12.373,742.435 " />
<polygon stroke="black" stroke-width="1" fill="rgb(204, 204, 204)" fill-opacity="0.25" points="453.663,579.631 428.605,564.744 430.528,577.204 445.181,585.910 " />
<polygon stroke="black" stroke-width="1" fill="rgb(204, 204, 204)" fill-opacity="0.25" points="428.605,564.744 344.117,618.132 353.471,625.896 430.528,577.204 " />
<polygon stroke="black" stroke-width="1" fill="rgb(204, 204, 204)" fill-opacity="0.25" points="344.117,618.132 312.891,676.148 324.899,678.980 353.471,625.896 " />
<polygon stroke="black" stroke-width="1" fill="rgb(204, 204, 204)" fill-opacity="0.25" points="312.891,676.148 312.891,734.199 324.899,731.367 324.899,678.980 " />
<polygon stroke="black" stroke-width="1" fill="rgb(204, 204, 204)" fill-opacity="0.25" points="312.891,734.199 344.117,792.215 353.471,784.451 324.899,731.367 " />
<polygon stroke="black" stroke-width="1" fill="rgb(204, 204, 204)" fill-opacity="0.25" points="344.117,792.215 428.605,845.603 430.528,833.143 353.471,784.451 " />
<polygon stroke="black" stroke-width="1" fill="rgb(204, 204, 204)" fill-opacity="0.25" points="428.605,845.603 453.663,830.716 445.181,824.437 430.528,833.143 " />
<polygon stroke="black" stroke-width="1" fill="rgb(204, 204, 204)" fill-opacity="0.25" points="453.663,830.716 453.663,579.631 445.181,585.910 445.181,824.437 " />
<polygon stroke="black" stroke-width="1" fill="rgb(204, 204, 204)" fill-opacity="0.25" points="118.412,705.174 279.023,760.761 275.119,748.839 148.956,705.174 " />
<polygon stroke="black" stroke-width="1" fill="rgb(204, 204, 204)" fill-opacity="0.25" points="279.023,760.761 312.891,734.199 300.764,728.725 275.119,748.839 " />
<polygon stroke="black" stroke-width="1" fill="rgb(204, 204, 204)" fill-opacity="0.25" points="312.891,734.199 312.891,676.148 300.764,681.622 300.764,728.725 " />
<polygon stroke="black" stroke-width="1" fill="rgb(204, 204, 204)" fill-opacity="0.25" points="312.891,676.148 279.023,649.586 275.119,661.508 300.764,681.622 " />
<polygon stroke="black" stroke-width="1" fill="rgb(204, 204, 204)" fill-opacity="0.25" points="279.023,649.586 118.412,705.174 148.956,705.174 275.119,661.508 " />

</svg>
